<svg xmlns="http://www.w3.org/2000/svg" viewBox="0 0 750 500"><g id="freepik--Shadow--inject-106"><ellipse cx="375" cy="453" rx="289.41" ry="15.96" style="fill:#ebebeb"></ellipse></g><g id="freepik--Floor--inject-106"><polygon points="46.67 406.5 128.75 406.26 210.84 406.17 375 406.01 539.16 406.17 621.25 406.26 703.33 406.5 621.25 406.75 539.16 406.84 375 407 210.84 406.84 128.75 406.75 46.67 406.5" style="fill:#263238"></polygon></g><g id="freepik--Door--inject-106"><rect x="291.67" y="57.77" width="153" height="348.76" style="fill:#a6a6a6"></rect><g style="opacity:0.1"><polygon points="444.68 119.28 444.68 172.03 291.68 345.09 291.68 292.33 444.68 119.28" style="fill:#fff"></polygon><polygon points="444.68 324 444.68 391.73 431.59 406.53 384.95 406.53 444.68 324" style="fill:#fff"></polygon><polygon points="444.68 191.49 444.68 200.24 291.68 388.27 291.68 379.52 444.68 191.49" style="fill:#fff"></polygon><polygon points="382.09 57.77 291.68 160.03 291.68 151.29 374.36 57.77 382.09 57.77" style="fill:#fff"></polygon><polygon points="352.18 57.77 291.68 126.2 291.68 106.35 334.63 57.77 352.18 57.77" style="fill:#fff"></polygon><polygon points="444.68 291.66 444.68 311.51 373.91 406.53 356.36 406.53 444.68 291.66" style="fill:#fff"></polygon></g><rect x="444.67" y="57.77" width="13.65" height="348.76" style="fill:#ebebeb"></rect><rect x="291.67" y="57.77" width="166.65" height="42.99" style="fill:#dbdbdb"></rect><rect x="291.67" y="61.06" width="166.65" height="0.75" style="fill:#c7c7c7"></rect><rect x="291.67" y="66.15" width="166.65" height="0.75" style="fill:#c7c7c7"></rect><rect x="291.67" y="71.25" width="166.65" height="0.75" style="fill:#c7c7c7"></rect><rect x="291.67" y="76.34" width="166.65" height="0.75" style="fill:#c7c7c7"></rect><rect x="291.67" y="81.44" width="166.65" height="0.75" style="fill:#c7c7c7"></rect><rect x="291.67" y="86.53" width="166.65" height="0.75" style="fill:#c7c7c7"></rect><rect x="291.67" y="91.62" width="166.65" height="0.75" style="fill:#c7c7c7"></rect><rect x="291.67" y="96.72" width="166.65" height="0.75" style="fill:#c7c7c7"></rect><rect x="422.45" y="238.94" width="11.47" height="41.56" style="fill:#fff"></rect></g><g id="freepik--Windows--inject-106"><path d="M54.43,65.69v227.5H260.81V65.69ZM255.49,287.62H59.74V71.26H255.49Z" style="fill:#dbdbdb"></path><rect x="59.74" y="71.26" width="195.76" height="216.36" style="fill:#fff"></rect><g style="opacity:0.2"><polygon points="137.56 71.25 59.74 152.78 59.74 116.93 103.34 71.25 137.56 71.25" style="fill:#ebebeb"></polygon><polygon points="255.5 177.28 255.5 213.14 184.41 287.62 150.19 287.62 255.5 177.28" style="fill:#ebebeb"></polygon><polygon points="255.5 104.14 255.5 122.07 97.49 287.62 80.38 287.62 255.5 104.14" style="fill:#ebebeb"></polygon><polygon points="186.56 71.25 59.74 204.11 59.74 199.64 182.28 71.25 186.56 71.25" style="fill:#ebebeb"></polygon><polygon points="255.5 81.23 255.5 85.71 62.77 287.62 58.5 287.62 59.74 286.32 255.5 81.23" style="fill:#ebebeb"></polygon><polygon points="255.5 266.11 255.5 270.59 239.24 287.62 234.96 287.62 255.5 266.11" style="fill:#ebebeb"></polygon><polygon points="84.68 71.25 59.74 97.39 59.74 92.92 80.42 71.25 84.68 71.25" style="fill:#ebebeb"></polygon></g><path d="M275.74,89.18H39.5c14.13-17.41,17-31.41,17-31.41H258.74S261.59,71.77,275.74,89.18Z" style="fill:#9E1528"></path><path d="M88.48,57.77A56.53,56.53,0,0,1,87.27,66c-.28,1.36-.72,2.7-1.08,4-.2.67-.47,1.33-.7,2a20.61,20.61,0,0,1-.75,2,55.72,55.72,0,0,1-3.86,7.73c-.77,1.26-1.56,2.51-2.4,3.74s-1.81,2.42-2.8,3.58l0,.06v0H57.91C59,88.05,60,86.88,61,85.7s2-2.44,2.83-3.7a62,62,0,0,0,4.7-7.72,46,46,0,0,0,3.24-8.09,33.88,33.88,0,0,0,1.32-8.42Z" style="fill:#ebebeb"></path><path d="M118,57.77c-.12,1.33-.2,2.73-.29,4l-.33,4c-.32,2.64-.53,5.27-1,7.89-.21,1.31-.46,2.61-.7,3.93s-.57,2.6-.91,3.89A38.27,38.27,0,0,1,112,89.12v.06H94.24a29.25,29.25,0,0,0,2.47-3.57,34.67,34.67,0,0,0,2-3.8A49.29,49.29,0,0,0,101.57,74c.32-1.33.67-2.66.89-4,.12-.67.26-1.34.35-2l.23-2c.09-.67.13-1.35.16-2l.09-2c0-1.35,0-2.79-.08-4.12Z" style="fill:#ebebeb"></path><path d="M149.56,57.77c-.16,1.46-.25,3-.38,4.46l-.27,4.37c-.16,2.92-.23,5.84-.37,8.75s-.14,5.85-.14,8.76c0,1.69,0,3.38,0,5.07H130.57c.36-1.29.61-2.57.85-3.87s.48-2.6.64-3.91c.33-2.6.64-5.22.76-7.84s.25-5.23.18-7.86c0-1.31-.05-2.61-.1-3.93s-.15-2.69-.27-4Z" style="fill:#ebebeb"></path><path d="M166.81,89.18c0-1.69,0-3.38,0-5.07,0-2.91-.1-5.83-.14-8.76s-.2-5.83-.36-8.75l-.27-4.37c-.14-1.46-.23-3-.39-4.46h16.94c-.12,1.31-.19,2.7-.27,4s-.1,2.62-.11,3.93c-.06,2.63.06,5.24.19,7.86s.43,5.24.75,7.84c.16,1.31.38,2.62.64,3.91s.5,2.58.85,3.87Z" style="fill:#ebebeb"></path><path d="M203.25,89.18v0l0,0a40.19,40.19,0,0,1-2.76-7.64c-.34-1.29-.63-2.6-.9-3.89s-.5-2.62-.71-3.93c-.47-2.62-.69-5.25-1-7.89l-.34-4c-.08-1.31-.16-2.71-.28-4H212c-.06,1.33-.1,2.77-.09,4.12l.1,2c0,.67.07,1.35.16,2l.23,2c.08.67.23,1.34.34,2,.22,1.34.57,2.67.89,4a49.29,49.29,0,0,0,2.85,7.85,38.5,38.5,0,0,0,2,3.8A30.41,30.41,0,0,0,221,89.18Z" style="fill:#ebebeb"></path><path d="M239.59,89.18v0l0-.06c-1-1.16-1.93-2.36-2.8-3.58s-1.63-2.48-2.4-3.74A54.63,54.63,0,0,1,230.5,74a20.69,20.69,0,0,1-.76-2c-.23-.66-.5-1.32-.69-2-.37-1.34-.8-2.68-1.08-4a58,58,0,0,1-1.22-8.26h15.41a33.41,33.41,0,0,0,1.31,8.42,46.05,46.05,0,0,0,3.25,8.09,60.77,60.77,0,0,0,4.7,7.72c.87,1.26,1.82,2.49,2.83,3.7s2,2.35,3.08,3.48Z" style="fill:#ebebeb"></path><rect x="39.5" y="89.18" width="236.23" height="10.23" style="fill:#9E1528"></rect><polygon points="75.83 99.4 57.66 99.4 57.93 89.18 75.56 89.18 75.83 99.4" style="fill:#ebebeb"></polygon><polygon points="112.17 99.4 94 99.4 94.27 89.18 111.91 89.18 112.17 99.4" style="fill:#ebebeb"></polygon><polygon points="148.52 99.4 130.35 99.4 130.62 89.18 148.25 89.18 148.52 99.4" style="fill:#ebebeb"></polygon><polygon points="184.87 99.4 166.69 99.4 166.97 89.18 184.6 89.18 184.87 99.4" style="fill:#ebebeb"></polygon><path d="M220.94,89.18H203.31L203,99.4h18.17Zm.05,8.65h0l0,.09s0,0,0,0S221,97.85,221,97.83Z" style="fill:#ebebeb"></path><path d="M221,97.83l0,.09s0,0,0,0,0,0,0-.06Z" style="fill:#9E1528"></path><path d="M257.28,89.18H239.65l-.27,10.22h18.17Zm.05,8.65h0l0,.1,0,0Z" style="fill:#ebebeb"></path><path d="M257.37,97.83l0,.1,0,0,0-.06Z" style="fill:#9E1528"></path><g style="opacity:0.1"><path d="M73.08,57.77a33.88,33.88,0,0,1-1.32,8.42,46,46,0,0,1-3.24,8.09A62,62,0,0,1,63.82,82C63,83.26,62,84.49,61,85.7s-2,2.35-3.08,3.48c0,0,0,0,0,0s0,0,0,0l0-.08h-.39v0l0-.06A79.43,79.43,0,0,0,63,81.73a81.8,81.8,0,0,0,4.58-7.68,59.77,59.77,0,0,0,3.45-8l.66-2c.21-.68.33-1.38.53-2.06C72.68,60.63,72.78,59.16,73.08,57.77Z"></path><path d="M88,66.1a39.68,39.68,0,0,1-2.31,8.13,45.52,45.52,0,0,1-4,7.79,42.87,42.87,0,0,1-5.6,7.16,0,0,0,0,1,0,0s0,0,0,0l0,0h-.4v0l0-.06c1-1.16,1.92-2.36,2.8-3.58s1.63-2.48,2.4-3.74A55.72,55.72,0,0,0,84.74,74a20.61,20.61,0,0,0,.75-2c.23-.66.5-1.32.7-2,.36-1.34.8-2.68,1.08-4a56.53,56.53,0,0,0,1.21-8.26A37,37,0,0,1,88,66.1Z"></path><path d="M149.68,66.61c0,2.93-.1,5.84-.14,8.76s-.2,5.84-.38,8.76c-.09,1.68-.2,3.37-.32,5.05h-.42c0-1.69,0-3.38,0-5.07,0-2.91.1-5.83.14-8.76s.21-5.83.37-8.75l.27-4.37c.13-1.46.22-3,.38-4.46.07,1.46.07,3,.11,4.47Z"></path><path d="M166.83,84.11c0,1.69,0,3.38,0,5.07h-.41c-.13-1.68-.23-3.37-.33-5.05-.17-2.92-.24-5.84-.37-8.76s-.14-5.83-.15-8.76V62.24c.05-1.46.05-3,.11-4.47.16,1.46.25,3,.39,4.46l.27,4.37c.16,2.92.23,5.84.36,8.75S166.83,81.2,166.83,84.11Z"></path><path d="M132.82,73.56c-.12,2.62-.43,5.24-.76,7.84-.16,1.31-.37,2.62-.64,3.91s-.49,2.58-.85,3.87h-.42v0c.48-2.59.75-5.19,1-7.8s.46-5.21.68-7.82.28-5.22.43-7.83l.33-7.93c.12,1.31.19,2.7.27,4s.09,2.62.1,3.93C133.07,68.33,133,70.94,132.82,73.56Z"></path><path d="M118.15,61.82c0,1.33,0,2.65-.07,4a73.52,73.52,0,0,1-.76,7.94,54.41,54.41,0,0,1-1.72,7.86,37,37,0,0,1-1.35,3.87,22.51,22.51,0,0,1-1.85,3.71v0s0,0,0,0v0H112v-.06a38.27,38.27,0,0,0,2.77-7.64c.34-1.29.64-2.6.91-3.89s.49-2.62.7-3.93c.48-2.62.69-5.25,1-7.89l.33-4c.09-1.31.17-2.71.29-4C118.07,59.1,118.1,60.5,118.15,61.82Z"></path><path d="M103.29,61.89l-.09,2c0,.67-.07,1.35-.16,2l-.23,2c-.09.67-.23,1.34-.35,2-.22,1.34-.57,2.67-.89,4a49.29,49.29,0,0,1-2.85,7.85,34.67,34.67,0,0,1-2,3.8,29.25,29.25,0,0,1-2.47,3.57l0,0,0,0,0-.07h-.4v0l0-.05a42.22,42.22,0,0,0,4.06-7.48,62.71,62.71,0,0,0,2.74-7.79,72.9,72.9,0,0,0,1.7-7.94c.26-1.33.33-2.67.52-4s.21-2.78.36-4.11C103.26,59.1,103.3,60.54,103.29,61.89Z"></path><path d="M257.76,89.18h-.39l0,.08,0,0s0,0,0,0c-1.12-1.13-2.11-2.3-3.08-3.48s-2-2.44-2.83-3.7a60.77,60.77,0,0,1-4.7-7.72,46.05,46.05,0,0,1-3.25-8.09,33.41,33.41,0,0,1-1.31-8.42c.3,1.39.4,2.86.82,4.22.19.68.32,1.38.53,2.06l.66,2a58.5,58.5,0,0,0,3.45,8,79.59,79.59,0,0,0,4.57,7.68,81.38,81.38,0,0,0,5.54,7.36l0,.06Z"></path><path d="M239.59,89.18h-.4l0,0,0,0,0,0A42.8,42.8,0,0,1,233.57,82a45.52,45.52,0,0,1-4-7.79,39.71,39.71,0,0,1-2.32-8.13,37.59,37.59,0,0,1-.51-8.33A58,58,0,0,0,228,66c.28,1.36.71,2.7,1.08,4,.19.67.46,1.33.69,2a20.69,20.69,0,0,0,.76,2,54.63,54.63,0,0,0,3.86,7.73c.77,1.26,1.56,2.51,2.4,3.74s1.8,2.42,2.8,3.58l0,.06Z"></path><path d="M185.09,89.15v0h-.43c-.35-1.29-.6-2.57-.85-3.87s-.48-2.6-.64-3.91c-.32-2.6-.63-5.22-.75-7.84s-.25-5.23-.19-7.86c0-1.31.06-2.61.11-3.93s.15-2.69.27-4l.32,7.93c.16,2.61.23,5.23.44,7.83s.36,5.22.67,7.82S184.61,86.56,185.09,89.15Z"></path><path d="M203.25,89.18h-.4v0a0,0,0,0,0,0,0l0,0A22.51,22.51,0,0,1,201,85.47a36.92,36.92,0,0,1-1.34-3.87,55.81,55.81,0,0,1-1.73-7.86,71,71,0,0,1-.75-7.94c0-1.33-.07-2.65-.07-4s.08-2.72.15-4c.12,1.33.2,2.73.28,4l.34,4c.31,2.64.53,5.27,1,7.89.21,1.31.47,2.61.71,3.93s.56,2.6.9,3.89a40.19,40.19,0,0,0,2.76,7.64l0,0Z"></path><path d="M221.42,89.18H221l0,.07s0,0,0,0,0,0,0,0a30.41,30.41,0,0,1-2.47-3.57,38.5,38.5,0,0,1-2-3.8A49.29,49.29,0,0,1,213.66,74c-.32-1.33-.67-2.66-.89-4-.11-.67-.26-1.34-.34-2l-.23-2c-.09-.67-.13-1.35-.16-2l-.1-2c0-1.35,0-2.79.09-4.12.15,1.33.2,2.77.36,4.11s.25,2.68.51,4a75.33,75.33,0,0,0,1.7,7.94,64.38,64.38,0,0,0,2.74,7.79,42.87,42.87,0,0,0,4.06,7.48l0,.05Z"></path></g><g style="opacity:0.1"><path d="M202.84,97.83l0,.07s0,0,0,0,0,0,0,0Z"></path><path d="M221.05,97.92s0,0,0,0,0,0,0-.06h0Z"></path><path d="M239.19,97.83l.05.1-.05-.06,0,0Z"></path><path d="M257.4,97.93l0,0,0-.06h0Z"></path><polygon points="57.93 89.18 57.66 99.4 57.39 89.18 57.93 89.18"></polygon><polygon points="76.1 89.18 75.83 99.4 75.56 89.18 76.1 89.18"></polygon><polygon points="94.27 89.18 94 99.4 93.73 89.18 94.27 89.18"></polygon><polygon points="112.44 89.18 112.17 99.4 111.91 89.18 112.44 89.18"></polygon><polygon points="130.62 89.18 130.35 99.4 130.07 89.18 130.62 89.18"></polygon><polygon points="148.79 89.18 148.52 99.4 148.25 89.18 148.79 89.18"></polygon><polygon points="166.97 89.18 166.69 99.4 166.42 89.18 166.97 89.18"></polygon><polygon points="185.14 89.18 184.87 99.4 184.6 89.18 185.14 89.18"></polygon><polygon points="203.31 89.18 203.04 99.4 202.77 89.18 203.31 89.18"></polygon><polygon points="221.48 89.18 221.21 99.4 220.94 89.18 221.48 89.18"></polygon><polygon points="239.65 89.18 239.38 99.4 239.11 89.18 239.65 89.18"></polygon><polygon points="257.83 89.18 257.55 99.4 257.28 89.18 257.83 89.18"></polygon></g><g style="opacity:0.1"><rect x="39.5" y="89.18" width="236.23" height="10.23"></rect></g><path d="M489.19,65.69v227.5H695.57V65.69ZM690.26,287.62H494.51V71.26H690.26Z" style="fill:#dbdbdb"></path><rect x="494.5" y="71.26" width="195.76" height="216.36" style="fill:#fff"></rect><g style="opacity:0.2"><polygon points="572.32 71.25 494.5 152.78 494.5 116.93 538.1 71.25 572.32 71.25" style="fill:#ebebeb"></polygon><polygon points="690.26 177.28 690.26 213.14 619.18 287.62 584.96 287.62 690.26 177.28" style="fill:#ebebeb"></polygon><polygon points="690.26 104.14 690.26 122.07 532.25 287.62 515.14 287.62 690.26 104.14" style="fill:#ebebeb"></polygon><polygon points="621.32 71.25 494.5 204.11 494.5 199.64 617.04 71.25 621.32 71.25" style="fill:#ebebeb"></polygon><polygon points="690.26 81.23 690.26 85.71 497.53 287.62 493.26 287.62 494.5 286.32 690.26 81.23" style="fill:#ebebeb"></polygon><polygon points="690.26 266.11 690.26 270.59 674.01 287.62 669.73 287.62 690.26 266.11" style="fill:#ebebeb"></polygon><polygon points="519.45 71.25 494.5 97.39 494.5 92.92 515.19 71.25 519.45 71.25" style="fill:#ebebeb"></polygon></g><path d="M710.5,89.18H474.26c14.14-17.41,17-31.41,17-31.41H693.51S696.36,71.77,710.5,89.18Z" style="fill:#9E1528"></path><path d="M523.25,57.77A58,58,0,0,1,522,66c-.28,1.36-.71,2.7-1.08,4-.19.67-.46,1.33-.69,2a20.69,20.69,0,0,1-.76,2,54.63,54.63,0,0,1-3.86,7.73c-.77,1.26-1.56,2.51-2.4,3.74s-1.8,2.42-2.8,3.58l0,.06v0H492.67c1.12-1.13,2.11-2.3,3.08-3.48s2-2.44,2.83-3.7a60.77,60.77,0,0,0,4.7-7.72,46.05,46.05,0,0,0,3.25-8.09,33.41,33.41,0,0,0,1.31-8.42Z" style="fill:#ebebeb"></path><path d="M552.76,57.77c-.12,1.33-.2,2.73-.28,4l-.34,4c-.31,2.64-.53,5.27-1,7.89-.21,1.31-.47,2.61-.71,3.93s-.56,2.6-.9,3.89a38.94,38.94,0,0,1-2.78,7.64v.06H529a30.41,30.41,0,0,0,2.47-3.57,38.5,38.5,0,0,0,2-3.8A49.29,49.29,0,0,0,536.34,74c.32-1.33.67-2.66.89-4,.11-.67.26-1.34.34-2l.23-2c.09-.67.13-1.35.16-2l.1-2c0-1.35,0-2.79-.09-4.12Z" style="fill:#ebebeb"></path><path d="M584.33,57.77c-.16,1.46-.25,3-.39,4.46l-.27,4.37c-.16,2.92-.23,5.84-.36,8.75s-.14,5.85-.14,8.76c0,1.69,0,3.38,0,5.07H565.34c.35-1.29.6-2.57.85-3.87s.48-2.6.64-3.91c.32-2.6.63-5.22.75-7.84s.25-5.23.19-7.86c0-1.31-.06-2.61-.11-3.93s-.15-2.69-.27-4Z" style="fill:#ebebeb"></path><path d="M601.58,89.18c0-1.69,0-3.38,0-5.07,0-2.91-.1-5.83-.14-8.76s-.21-5.83-.37-8.75l-.27-4.37c-.13-1.46-.22-3-.38-4.46h16.93c-.12,1.31-.19,2.7-.27,4s-.09,2.62-.1,3.93c-.07,2.63,0,5.24.18,7.86s.43,5.24.76,7.84c.16,1.31.37,2.62.64,3.91s.49,2.58.85,3.87Z" style="fill:#ebebeb"></path><path d="M638,89.18v0l0,0a38.87,38.87,0,0,1-2.76-7.64c-.34-1.29-.64-2.6-.91-3.89s-.49-2.62-.7-3.93c-.48-2.62-.69-5.25-1-7.89l-.33-4c-.09-1.31-.17-2.71-.29-4h14.79c0,1.33-.09,2.77-.08,4.12l.09,2c0,.67.07,1.35.16,2l.23,2c.09.67.23,1.34.35,2,.22,1.34.57,2.67.89,4a49.29,49.29,0,0,0,2.85,7.85,34.67,34.67,0,0,0,2,3.8,29.25,29.25,0,0,0,2.47,3.57Z" style="fill:#ebebeb"></path><path d="M674.36,89.18v0l0-.06c-1-1.16-1.92-2.36-2.79-3.58s-1.64-2.48-2.41-3.74A55.72,55.72,0,0,1,665.26,74a20.61,20.61,0,0,1-.75-2c-.23-.66-.5-1.32-.7-2-.36-1.34-.8-2.68-1.08-4a56.53,56.53,0,0,1-1.21-8.26h15.4a33.88,33.88,0,0,0,1.32,8.42,46,46,0,0,0,3.24,8.09,60.77,60.77,0,0,0,4.7,7.72c.87,1.26,1.83,2.49,2.83,3.7s2,2.35,3.08,3.48Z" style="fill:#ebebeb"></path><rect x="474.26" y="89.18" width="236.23" height="10.23" style="fill:#9E1528"></rect><polygon points="510.59 99.4 492.42 99.4 492.69 89.18 510.32 89.18 510.59 99.4" style="fill:#ebebeb"></polygon><polygon points="546.94 99.4 528.77 99.4 529.04 89.18 546.67 89.18 546.94 99.4" style="fill:#ebebeb"></polygon><polygon points="583.28 99.4 565.12 99.4 565.38 89.18 583.02 89.18 583.28 99.4" style="fill:#ebebeb"></polygon><polygon points="619.63 99.4 601.46 99.4 601.73 89.18 619.36 89.18 619.63 99.4" style="fill:#ebebeb"></polygon><path d="M655.7,89.18H638.07L637.8,99.4H656Zm.06,8.65h0l0,.09,0,0Z" style="fill:#ebebeb"></path><path d="M655.79,97.83l0,.09,0,0,0-.06Z" style="fill:#9E1528"></path><path d="M692.05,89.18H674.42l-.27,10.22h18.17Zm0,8.65h0l0,.1s0,0,0,0Z" style="fill:#ebebeb"></path><path d="M692.14,97.83l0,.1s0,0,0,0l0-.06Z" style="fill:#9E1528"></path><g style="opacity:0.1"><path d="M507.84,57.77a33.41,33.41,0,0,1-1.31,8.42,46.05,46.05,0,0,1-3.25,8.09,60.77,60.77,0,0,1-4.7,7.72c-.87,1.26-1.82,2.49-2.83,3.7s-2,2.35-3.08,3.48c0,0,0,0,0,0l0,0,0-.08h-.39v0l0-.06a81.38,81.38,0,0,0,5.54-7.36,79.59,79.59,0,0,0,4.57-7.68,58.5,58.5,0,0,0,3.45-8l.66-2c.21-.68.34-1.38.53-2.06C507.44,60.63,507.54,59.16,507.84,57.77Z"></path><path d="M522.74,66.1a39.71,39.71,0,0,1-2.32,8.13,45.52,45.52,0,0,1-4,7.79,42.8,42.8,0,0,1-5.59,7.16l0,0,0,0,0,0h-.4v0l0-.06c1-1.16,1.93-2.36,2.8-3.58s1.63-2.48,2.4-3.74A54.63,54.63,0,0,0,519.5,74a20.69,20.69,0,0,0,.76-2c.23-.66.5-1.32.69-2,.37-1.34.8-2.68,1.08-4a58,58,0,0,0,1.22-8.26A38.21,38.21,0,0,1,522.74,66.1Z"></path><path d="M584.45,66.61c0,2.93-.1,5.84-.15,8.76s-.2,5.84-.37,8.76c-.1,1.68-.2,3.37-.33,5.05h-.41c0-1.69,0-3.38,0-5.07,0-2.91.1-5.83.14-8.76s.2-5.83.36-8.75l.27-4.37c.14-1.46.23-3,.39-4.46.06,1.46.06,3,.11,4.47Z"></path><path d="M601.6,84.11c0,1.69,0,3.38,0,5.07h-.42c-.12-1.68-.23-3.37-.32-5.05-.18-2.92-.25-5.84-.38-8.76s-.13-5.83-.14-8.76V62.24c0-1.46,0-3,.11-4.47.16,1.46.25,3,.38,4.46l.27,4.37c.16,2.92.23,5.84.37,8.75S601.6,81.2,601.6,84.11Z"></path><path d="M567.58,73.56c-.12,2.62-.43,5.24-.75,7.84-.16,1.31-.38,2.62-.64,3.91s-.5,2.58-.85,3.87h-.43v0c.48-2.59.75-5.19,1.05-7.8s.45-5.21.67-7.82.28-5.22.44-7.83l.32-7.93c.12,1.31.19,2.7.27,4s.1,2.62.11,3.93C567.83,68.33,567.71,70.94,567.58,73.56Z"></path><path d="M552.91,61.82c0,1.33,0,2.65-.07,4a71,71,0,0,1-.75,7.94,55.81,55.81,0,0,1-1.73,7.86A36.92,36.92,0,0,1,549,85.47a22.51,22.51,0,0,1-1.85,3.71l0,0a0,0,0,0,0,0,0v0h-.4v-.06a38.94,38.94,0,0,0,2.78-7.64c.34-1.29.63-2.6.9-3.89s.5-2.62.71-3.93c.47-2.62.69-5.25,1-7.89l.34-4c.08-1.31.16-2.71.28-4C552.83,59.1,552.87,60.5,552.91,61.82Z"></path><path d="M538.06,61.89l-.1,2c0,.67-.07,1.35-.16,2l-.23,2c-.08.67-.23,1.34-.34,2-.22,1.34-.57,2.67-.89,4a49.29,49.29,0,0,1-2.85,7.85,38.5,38.5,0,0,1-2,3.8A30.41,30.41,0,0,1,529,89.18s0,0,0,0l0,0,0-.07h-.4v0l0-.05a42.87,42.87,0,0,0,4.06-7.48,64.38,64.38,0,0,0,2.74-7.79,75.33,75.33,0,0,0,1.7-7.94c.26-1.33.32-2.67.51-4s.21-2.78.36-4.11C538,59.1,538.07,60.54,538.06,61.89Z"></path><path d="M692.53,89.18h-.39l0,.08s0,0,0,0,0,0,0,0C691,88.05,690,86.88,689,85.7s-2-2.44-2.83-3.7a60.77,60.77,0,0,1-4.7-7.72,46,46,0,0,1-3.24-8.09,33.88,33.88,0,0,1-1.32-8.42c.3,1.39.4,2.86.82,4.22.2.68.32,1.38.53,2.06l.66,2a59.77,59.77,0,0,0,3.45,8A81.8,81.8,0,0,0,687,81.73a79.43,79.43,0,0,0,5.53,7.36l0,.06Z"></path><path d="M674.36,89.18H674l0,0s0,0,0,0a0,0,0,0,1,0,0,42.87,42.87,0,0,1-5.6-7.16,45.52,45.52,0,0,1-4-7.79A39.68,39.68,0,0,1,662,66.1a37,37,0,0,1-.51-8.33A56.53,56.53,0,0,0,662.73,66c.28,1.36.72,2.7,1.08,4,.2.67.47,1.33.7,2a20.61,20.61,0,0,0,.75,2,55.72,55.72,0,0,0,3.86,7.73c.77,1.26,1.56,2.51,2.41,3.74s1.8,2.42,2.79,3.58l0,.06Z"></path><path d="M619.85,89.15v0h-.42c-.36-1.29-.61-2.57-.85-3.87s-.48-2.6-.64-3.91c-.33-2.6-.64-5.22-.76-7.84s-.25-5.23-.18-7.86c0-1.31,0-2.61.1-3.93s.15-2.69.27-4l.33,7.93c.15,2.61.22,5.23.43,7.83s.37,5.22.68,7.82S619.37,86.56,619.85,89.15Z"></path><path d="M638,89.18h-.41v0s0,0,0,0v0a22.51,22.51,0,0,1-1.85-3.71,37,37,0,0,1-1.35-3.87,54.41,54.41,0,0,1-1.72-7.86,73.52,73.52,0,0,1-.76-7.94c0-1.33-.07-2.65-.07-4s.08-2.72.15-4c.12,1.33.2,2.73.29,4l.33,4c.32,2.64.53,5.27,1,7.89.21,1.31.46,2.61.7,3.93s.57,2.6.91,3.89A38.87,38.87,0,0,0,638,89.12l0,0Z"></path><path d="M656.19,89.18h-.4l0,.07,0,0,0,0a29.25,29.25,0,0,1-2.47-3.57,34.67,34.67,0,0,1-2-3.8A49.29,49.29,0,0,1,648.43,74c-.32-1.33-.67-2.66-.89-4-.12-.67-.26-1.34-.35-2l-.23-2c-.09-.67-.13-1.35-.16-2l-.09-2c0-1.35,0-2.79.08-4.12.15,1.33.2,2.77.36,4.11s.26,2.68.52,4a72.9,72.9,0,0,0,1.7,7.94,62.71,62.71,0,0,0,2.74,7.79,42.22,42.22,0,0,0,4.06,7.48l0,.05Z"></path></g><g style="opacity:0.1"><path d="M637.61,97.83l0,.07s0,0,0,0,0,0,0,0Z"></path><path d="M655.81,97.92l0,0,0-.06h0Z"></path><path d="M674,97.83l0,.1,0-.06s0,0,0,0Z"></path><path d="M692.17,97.93s0,0,0,0l0-.06h0Z"></path><polygon points="492.69 89.18 492.42 99.4 492.15 89.18 492.69 89.18"></polygon><polygon points="510.86 89.18 510.59 99.4 510.32 89.18 510.86 89.18"></polygon><polygon points="529.04 89.18 528.77 99.4 528.5 89.18 529.04 89.18"></polygon><polygon points="547.21 89.18 546.94 99.4 546.67 89.18 547.21 89.18"></polygon><polygon points="565.38 89.18 565.12 99.4 564.84 89.18 565.38 89.18"></polygon><polygon points="583.55 89.18 583.28 99.4 583.02 89.18 583.55 89.18"></polygon><polygon points="601.73 89.18 601.46 99.4 601.19 89.18 601.73 89.18"></polygon><polygon points="619.9 89.18 619.63 99.4 619.36 89.18 619.9 89.18"></polygon><polygon points="638.07 89.18 637.8 99.4 637.53 89.18 638.07 89.18"></polygon><polygon points="656.25 89.18 655.98 99.4 655.7 89.18 656.25 89.18"></polygon><polygon points="674.42 89.18 674.15 99.4 673.88 89.18 674.42 89.18"></polygon><polygon points="692.59 89.18 692.32 99.4 692.05 89.18 692.59 89.18"></polygon></g><g style="opacity:0.1"><rect x="474.26" y="89.18" width="236.23" height="10.23"></rect></g></g><g id="freepik--Balloons--inject-106"><path d="M678.29,185.21a48.71,48.71,0,0,0-1.75,11.31,70.27,70.27,0,0,0,.38,11.42c.85,7.6,2.54,15.08,3.38,22.75a34.49,34.49,0,0,1-.42,11.59,38.11,38.11,0,0,1-4.79,10.54c-1,1.65-2,3.27-2.83,5a9.39,9.39,0,0,0-1.2,5.37,5.77,5.77,0,0,0,2.88,4.52,4,4,0,0,0,2.7.43,3.35,3.35,0,0,0,2.21-1.66,3.43,3.43,0,0,1-2.17,1.8,4.17,4.17,0,0,1-2.86-.34,6.13,6.13,0,0,1-3.24-4.68,9.82,9.82,0,0,1,1.11-5.71c.81-1.76,1.8-3.42,2.74-5.09,1.86-3.32,3.72-6.68,4.57-10.36a33.84,33.84,0,0,0,.3-11.28c-.74-7.59-2.45-15.1-3.14-22.77S675.83,192.5,678.29,185.21Z" style="fill:#263238"></path><path d="M700.42,151.71a41,41,0,0,1-9,16.92c-5.8,6.8-12,10.69-11.86,11.36.31,1.93,2.39,4.76,2.29,5.41s-1.65,1.4-3,1.48-3-.45-3.15-1.08,1.51-3.71,1.57-5.66c0-1.37-26.71-12.32-26.53-37.42.09-12.88,7.85-18.59,14.58-21.12a32.22,32.22,0,0,1,5.77-1.57,31.66,31.66,0,0,1,3.4-.43c3.65-.23,23.72-.64,26.53,19.86A32.79,32.79,0,0,1,700.42,151.71Z" style="fill:#9E1528"></path><path d="M679.52,180c.31,1.93,2.39,4.76,2.29,5.41s-1.65,1.4-3,1.48-3-.45-3.15-1.08,1.51-3.71,1.57-5.66c0-1.37-26.71-12.32-26.53-37.42.09-12.88,7.85-18.59,14.58-21.12-5.76,5.6-12.59,16.34-6.08,32.67,6,15.08,21,18.69,32.16,14.36C685.58,175.43,679.41,179.32,679.52,180Z" style="opacity:0.1"></path><path d="M695.26,130.72c1.77,3.34.82,7.32-2.14,8.89s-6.79.14-8.57-3.19-.81-7.32,2.14-8.89S693.48,127.38,695.26,130.72Z" style="fill:#fff"></path><path d="M77.12,210.68c.11,3.85-.8,7.62-1.15,11.41q-.31,2.83-.43,5.69a28.87,28.87,0,0,0,.2,5.66c1.08,7.51,4.06,14.66,5.43,22.26a26.13,26.13,0,0,1-.2,11.57A78.49,78.49,0,0,1,76.76,278a32.36,32.36,0,0,0-1.85,5.36,11.3,11.3,0,0,0,0,5.54,6.83,6.83,0,0,0,3.25,4.36,8.84,8.84,0,0,0,5.53.83,8.79,8.79,0,0,1-5.64-.61A7.17,7.17,0,0,1,74.44,289a11.63,11.63,0,0,1-.13-5.8,33.78,33.78,0,0,1,1.76-5.52c1.41-3.56,3.09-7,4-10.66a25.21,25.21,0,0,0,.09-11.17c-.65-3.73-1.7-7.4-2.72-11.09A74.6,74.6,0,0,1,75,233.54a29.5,29.5,0,0,1-.06-5.79c.12-1.91.3-3.83.57-5.73C76,218.22,77,214.52,77.12,210.68Z" style="fill:#263238"></path><path d="M98.38,177.53a40.89,40.89,0,0,1-9,16.93c-5.79,6.8-12,10.68-11.86,11.36.32,1.93,2.4,4.75,2.29,5.4s-1.65,1.4-3,1.49-3-.45-3.15-1.09,1.51-3.7,1.57-5.66c.05-1.37-26.71-12.32-26.53-37.41.09-12.89,7.85-18.59,14.58-21.13A33.32,33.32,0,0,1,69,145.85a31,31,0,0,1,3.4-.42c3.65-.24,23.72-.65,26.53,19.86A32.74,32.74,0,0,1,98.38,177.53Z" style="fill:#9E1528"></path><path d="M77.48,205.82c.32,1.93,2.4,4.75,2.29,5.4s-1.65,1.4-3,1.49-3-.45-3.15-1.09,1.51-3.7,1.57-5.66c.05-1.37-26.71-12.32-26.53-37.41.09-12.89,7.85-18.59,14.58-21.13-5.75,5.61-12.59,16.35-6.08,32.68,6,15.08,21.05,18.69,32.16,14.36C83.55,201.26,77.37,205.14,77.48,205.82Z" style="opacity:0.1"></path><path d="M93.22,156.55c1.77,3.33.82,7.31-2.14,8.89s-6.79.14-8.57-3.2-.81-7.32,2.14-8.89S91.44,153.21,93.22,156.55Z" style="fill:#fff"></path><path d="M652.67,234.76a96.46,96.46,0,0,1,2.78,11.78,57.58,57.58,0,0,1,.86,12.1,32,32,0,0,1-1,6l-1.5,5.86a100.48,100.48,0,0,0-2.57,11.74,19.86,19.86,0,0,0,0,5.86c.38,1.94.93,3.9,1.43,5.84,1,3.9,2.07,7.8,2.88,11.76.41,2,.77,4,1,6a18.23,18.23,0,0,1,0,6.12,8.51,8.51,0,0,1-1.46,2.72,6.89,6.89,0,0,1-2.35,2,5.25,5.25,0,0,1-3,.53,4.66,4.66,0,0,1-2.66-1.39,4.63,4.63,0,0,0,2.68,1.24,5.14,5.14,0,0,0,2.85-.62A7.66,7.66,0,0,0,656,317.7a18.07,18.07,0,0,0-.11-5.91c-.29-2-.69-4-1.14-5.91-.92-3.91-2-7.8-3-11.68-.52-2-1.07-3.88-1.48-5.9a20.27,20.27,0,0,1,0-6.17,101.59,101.59,0,0,1,2.68-11.84l1.54-5.84a33.94,33.94,0,0,0,1.09-5.86,57.27,57.27,0,0,0-.57-12A109.16,109.16,0,0,0,652.67,234.76Z" style="fill:#263238"></path><path d="M677.5,201.8a41.13,41.13,0,0,1-10.61,16C660.48,224,654,227.29,654,228c.14,1.95,1.94,5,1.77,5.6s-1.77,1.23-3.1,1.19-2.91-.73-3-1.38,1.85-3.54,2.1-5.48c.18-1.36-25.42-14.8-22.86-39.77,1.31-12.81,9.58-17.76,16.52-19.64a33.47,33.47,0,0,1,5.89-1,30.43,30.43,0,0,1,3.43-.1c3.66.11,23.67,1.61,24.53,22.29A33.18,33.18,0,0,1,677.5,201.8Z" style="fill:#c7c7c7"></path><path d="M654,228c.14,1.95,1.94,5,1.77,5.6s-1.77,1.23-3.1,1.19-2.91-.73-3-1.38,1.85-3.54,2.1-5.48c.18-1.36-25.42-14.8-22.86-39.77,1.31-12.81,9.58-17.76,16.52-19.64-6.26,5-14.09,15.07-9.16,31.95,4.56,15.58,19.19,20.6,30.66,17.35C660.48,224,654,227.29,654,228Z" style="fill:#a6a6a6"></path><path d="M673.59,179.25c1.45,3.49.12,7.36-3,8.64s-6.78-.5-8.23-4-.12-7.36,3-8.65S672.14,175.76,673.59,179.25Z" style="fill:#fff"></path><path d="M130.5,238.65a154,154,0,0,1,2.39,22.59,39,39,0,0,1-1.14,11.37c-.94,3.7-2.19,7.28-3.32,10.88a74.06,74.06,0,0,0-2.78,10.92,37.42,37.42,0,0,0-.22,11.18c.45,3.74,1.26,7.43,2,11.16a16.23,16.23,0,0,1,.28,5.69,5.33,5.33,0,0,1-1.26,2.56,8.77,8.77,0,0,1-2.24,1.74,8.33,8.33,0,0,0,2.13-1.83,5.31,5.31,0,0,0,1.13-2.51,16,16,0,0,0-.49-5.57c-.81-3.68-1.68-7.38-2.23-11.14a35.29,35.29,0,0,1,.05-11.42,75.92,75.92,0,0,1,2.72-11.08c1.14-3.62,2.43-7.18,3.39-10.81a34.54,34.54,0,0,0,1-5.5c.15-1.87.23-3.75.23-5.63,0-3.77-.19-7.54-.49-11.31S130.94,242.41,130.5,238.65Z" style="fill:#263238"></path><path d="M155.61,208.52a41.19,41.19,0,0,1-10.6,16c-6.42,6.21-12.94,9.5-12.89,10.18.13,2,1.93,5,1.76,5.6s-1.77,1.23-3.1,1.19-2.9-.73-3-1.38,1.85-3.54,2.1-5.48c.17-1.36-25.42-14.8-22.87-39.77,1.31-12.81,9.58-17.76,16.52-19.64a33.47,33.47,0,0,1,5.89-1,30.47,30.47,0,0,1,3.43-.1c3.66.11,23.67,1.61,24.53,22.29A32.89,32.89,0,0,1,155.61,208.52Z" style="fill:#c7c7c7"></path><path d="M132.12,234.7c.13,2,1.93,5,1.76,5.6s-1.77,1.23-3.1,1.19-2.9-.73-3-1.38,1.85-3.54,2.1-5.48c.17-1.36-25.42-14.8-22.87-39.77,1.31-12.81,9.58-17.76,16.52-19.64-6.26,5-14.09,15.07-9.15,31.95,4.55,15.58,19.18,20.6,30.66,17.35C138.59,230.73,132.07,234,132.12,234.7Z" style="fill:#a6a6a6"></path><path d="M151.7,186c1.45,3.49.12,7.36-3,8.64s-6.78-.5-8.23-4-.12-7.36,3-8.65S150.25,182.49,151.7,186Z" style="fill:#fff"></path><path d="M108.07,173.79a121.11,121.11,0,0,1,3.63,15.07,49.62,49.62,0,0,1,.19,15.53,67.63,67.63,0,0,1-1.91,7.54c-.71,2.48-1.41,5-2,7.46a89.89,89.89,0,0,0-2.73,15.14,37.41,37.41,0,0,0,0,7.63c.27,2.55.71,5.09,1.17,7.62.91,5.07,2,10.15,2.45,15.32a38.46,38.46,0,0,1,0,7.81,19.39,19.39,0,0,1-.83,3.83,17.15,17.15,0,0,1-1.72,3.52,48.24,48.24,0,0,0-3.44,6.9,17,17,0,0,0-1,3.71,5.59,5.59,0,0,0,.59,3.72,5.72,5.72,0,0,1-.74-3.74,16.8,16.8,0,0,1,.9-3.78A49,49,0,0,1,105.9,280a16.9,16.9,0,0,0,1.62-3.45,18.93,18.93,0,0,0,.73-3.73,37.74,37.74,0,0,0-.14-7.66c-.57-5.1-1.62-10.16-2.59-15.23-.47-2.54-.93-5.09-1.22-7.68a38.57,38.57,0,0,1-.1-7.82,91.77,91.77,0,0,1,2.85-15.29c.66-2.51,1.38-5,2.11-7.47s1.5-4.94,2-7.44a49.49,49.49,0,0,0,.08-15.32A131.27,131.27,0,0,0,108.07,173.79Z" style="fill:#263238"></path><path d="M130.45,141.22a41.25,41.25,0,0,1-9.18,17.05c-5.76,6.68-11.81,10.49-11.7,11.16.31,1.93,2.39,4.76,2.28,5.41s-1.64,1.4-3,1.48-3-.45-3.15-1.08,1.51-3.71,1.57-5.66c0-1.37-26.71-12.32-26.53-37.42.09-13,8-18.68,14.73-21.18a33.78,33.78,0,0,1,5.73-1.54,32.58,32.58,0,0,1,3.29-.4c3.65-.24,23.71-.64,26.53,19.86A32.93,32.93,0,0,1,130.45,141.22Z" style="fill:#37474f"></path><path d="M80.77,132.16c.09-13,8-18.68,14.73-21.18-5.8,5.54-12.91,16.34-6.31,32.89,6,15,21,18.67,32.08,14.4-5.76,6.68-11.81,10.49-11.7,11.16.31,1.93,2.39,4.76,2.28,5.41s-1.64,1.4-3,1.48-3-.45-3.15-1.08,1.51-3.71,1.57-5.66C107.34,168.21,80.59,157.26,80.77,132.16Z" style="fill:#263238"></path><path d="M123.41,120.76c1.77,3.33.81,7.31-2.14,8.89s-6.79.14-8.57-3.2-.82-7.32,2.14-8.89S121.63,117.42,123.41,120.76Z" style="fill:#fff"></path></g><g id="freepik--character-3--inject-106"><path d="M495.3,452.66c2.06.67,60.73.13,62.94-1.31.86-.54,1.28-9.09,1.49-19.44v-.32q.07-3.21.09-6.56c0-.3-2.68-31.35-2.68-31.35l-38.35.25,2.87,31.35.21,6.24,0,.64s-22.36,10.25-24.63,12.09S493.24,452,495.3,452.66Z" style="fill:#f7a9a0"></path><path d="M559.6,437.28c-.25,7.8-.65,13.63-1.36,14.07-2.21,1.43-60.89,2-62.94,1.31s-.3-6.57,2-8.4a88.29,88.29,0,0,1,9.16-4.82c-2.3,2.5-3.46,5.26,2.7,5.26C520.07,444.7,539.18,442.9,559.6,437.28Z" style="fill:#455a64"></path><path d="M520,431h42.26s-8.51-98.69-8.18-100.41c.42-2.21,2.92-12.2,6.24-25.25,1-4.08,2.16-8.46,3.33-13,3.15-12.28,6.62-25.7,9.65-37.37,4.54-17.49,8.08-31.08,8.08-31.08H545.58s-4.17,13.23-9.43,30.44c-8.57,28-20,66.47-21.15,75.84C513.17,345.27,520,431,520,431Z" style="fill:#263238"></path><path d="M521.89,423.78c6.45-.14,4.59-.19,11.05-.25,3.16,0,23.91-.21,26.86.27.07,0,.07.13,0,.14-2.95.49-23.7.3-26.86.27-6.46-.06-4.6-.11-11.05-.25A.09.09,0,1,1,521.89,423.78Z" style="fill:#37474f"></path><path d="M546.14,324.55c1.39-6.11,3.46-12.1,5.26-18.09q5.49-18.27,11.05-36.53,2.77-9.12,5.57-18.25c1-3.07,1.89-6.14,2.85-9.2s2-6,2.86-9c.35-1.23.54-.55.09,1-.89,3.15-1.77,6.31-2.69,9.45q-2.73,9.34-5.49,18.67-5.49,18.57-11.08,37.1-2.79,9.3-5.6,18.6a75.37,75.37,0,0,0-2.28,9,40.85,40.85,0,0,0-.37,9.63c.4,6.46,1.15,12.92,1.75,19.36s1.19,12.93,1.79,19.39q1.78,19.31,3.54,38.59c.15,1.63.29,3.26.42,4.9,0,.54-.35.61-.41.08-1.39-12.72-2.89-25.58-4.09-38.32s-2.38-25.35-3.56-38c-.3-3.18-.64-6.37-.64-9.57A39.38,39.38,0,0,1,546.14,324.55Z" style="fill:#37474f"></path><path d="M549.65,223.88c2.48,19.23,7.22,55.29,10.68,81.45,8.07-31.7,21.06-81.45,21.06-81.45Z" style="fill:#37474f"></path><path d="M540.85,452.66c2.06.67,60.73.13,62.95-1.31.85-.54,1.27-9.09,1.48-19.44v-.32q.08-3.21.1-6.56c0-.3,0-.61,0-.92.14-14.93-.94-30.43-.94-30.43l-38.35.25,1.07,30.15,0,1.2.22,6.24,0,.64s-22.37,10.25-24.64,12.09S538.8,452,540.85,452.66Z" style="fill:#f7a9a0"></path><path d="M605.15,437.28c-.25,7.8-.65,13.63-1.36,14.07-2.21,1.43-60.88,2-62.94,1.31s-.3-6.57,2-8.4a88.86,88.86,0,0,1,9.17-4.82c-2.31,2.5-3.47,5.26,2.69,5.26C565.62,444.7,584.73,442.9,605.15,437.28Z" style="fill:#455a64"></path><path d="M546.74,223.88s.83,17.13,4.75,30.7c.31,1.12.65,2.23,1,3.28a64.61,64.61,0,0,1,10.32,5.31s.41,13.78.83,29.16c.45,17.18.93,36.35.83,40.42-.36,15.21,1.9,98.85,1.9,98.85l42.25.18s-7.64-93.41-7.59-99c.09-9-2-48.54-3.68-77.41a228.75,228.75,0,0,0-4-31.5Z" style="fill:#263238"></path><path d="M567.84,424.09c6.46-.11,4.6-.17,11.06-.2,3.15,0,23.91-.11,26.86.39.06,0,.06.12,0,.13-3,.48-23.71.21-26.87.16-6.45-.09-4.6-.13-11-.29A.1.1,0,0,1,567.84,424.09Z" style="fill:#37474f"></path><path d="M592,230c.77,23.57,1.6,47.14,2.65,70.7s6.61,108.25,8,121.39a.07.07,0,0,1-.14,0c-3.07-23.38-4.79-58-6.3-81.51s-2.54-47.09-3.34-70.64c-.45-13.33-.8-26.66-1.2-40C591.69,229.79,592,229.81,592,230Z" style="fill:#37474f"></path><path d="M550.75,256.84a78.45,78.45,0,0,1,12.08,6.33.14.14,0,0,1-.13.25c-4.07-2-8.23-3.89-12.19-6.09A.27.27,0,0,1,550.75,256.84Z" style="fill:#37474f"></path><path d="M550.52,242.31c.28,1.5.64,3,1,4.48s.52,2.83.89,4.21a7.14,7.14,0,0,0,2,3.53c.55.51,1.15,1,1.74,1.43.31.25.65.5,1,.75,0-.2-.08-.4-.11-.6-.1-.57-.2-1.14-.29-1.71-.22-1.27-.42-2.53-.61-3.8-.38-2.49-.73-5-1.25-7.48a.08.08,0,0,1,.15,0c.62,2.44,1.31,4.86,1.85,7.32.26,1.21,1.21,7.18,1.25,7.6s.08.88.1,1.32a5.46,5.46,0,0,1,0,1.34.12.12,0,0,1-.21,0h0a5.26,5.26,0,0,1-.38-1.3c-.11-.43-.21-.86-.28-1.29,0-.16,0-.32-.08-.48-.58-.35-1.13-.83-1.68-1.22s-1.2-.85-1.76-1.32a6.77,6.77,0,0,1-2.14-3.35,24.92,24.92,0,0,1-.7-4.29c-.19-1.7-.33-3.4-.57-5.09C550.35,242.25,550.5,242.21,550.52,242.31Z" style="fill:#37474f"></path><path d="M585.51,166.18c2.42,7.66,6.61,16.44,5.28,24.66-1,6.43-5.43,11.75-10.38,15.73-10.87,8.75-27.95,14.06-39.86,4.12-4.75-4-8.06-14-3.33-19.25,2.43-2.69,5.81-4.07,8.89-5.85a14.69,14.69,0,0,0,7.51-10.27c1.84-9-.51-14.61-2-23.41a6.3,6.3,0,0,1,.89-5.06,11.32,11.32,0,0,1,4.34-4.2,11.2,11.2,0,0,1,5-2.25c3.91-.62,8.5,1.92,12,3.32a10.43,10.43,0,0,1,6.79,7C582.33,155.88,583.88,161,585.51,166.18Z" style="fill:#263238"></path><path d="M587.44,169.58c-2.67-6.88-5.47-13.69-8.22-20.53,0,0-.09,0-.07,0,2.1,5.69,4.13,11.41,6.31,17.07s4.71,11.12,6.36,16.84c3.68,12.84-8.19,21.63-19.33,23.93-.51.1-.28.9.23.78,9.72-2.33,20.36-8.7,20.47-20C593.25,181.56,589.62,175.2,587.44,169.58Z" style="fill:#263238"></path><path d="M552,151.07a.11.11,0,0,0-.21.06c1.57,7.19,4.07,15.41,1.68,22.67a18.59,18.59,0,0,1-6.41,9c-2.37,1.8-5.17,2.65-7.82,3.94-10.32,5.05-6.5,19.79,3,23.41.2.08.33-.26.14-.34-6.76-3-10.75-10.54-7.79-17.68,2.38-5.73,9.79-6.09,14.08-10C557.52,174.07,555,161.32,552,151.07Z" style="fill:#263238"></path><path d="M563.16,185.86c-13.4,14.73-27.82,26.9-38.58,26.9-10.23,0-32.09-24.84-33.7-28.12-1.38-2.82,16.56-18.29,19.32-16.37,4.63,3.22,19.58,21.88,21.16,22S540.94,186.58,555,180C563.49,176,572.44,175.65,563.16,185.86Z" style="fill:#f7a9a0"></path><path d="M492.94,187.09c-2-2.14-10.22-12.76-11.85-16.23s-5.59-13.78-3.07-15.3S482,157,482,157s-1-4.62,1.69-5.92,4.72,3.33,4.72,3.33-.66-4.82,2.11-5.92,4,3.9,4,3.9-.81-4.38,1.85-4.33c3.21.06,3.8,8.31,5.88,12,.48.84,10.82,16.31,10.82,16.31Z" style="fill:#f7a9a0"></path><path d="M494.39,151.93c.45,6.06,1.7,8.63,5.25,13.44.07.1-.05.22-.13.13-3.91-4.39-5.94-7.4-5.41-13.56C494.13,151.63,494.37,151.64,494.39,151.93Z" style="fill:#263238"></path><path d="M488.35,153.9c1,6.26,2.33,9.06,5.69,14.37a.08.08,0,0,1-.13.09c-3.73-4.93-5.68-8-5.87-14.36C488,153.71,488.3,153.62,488.35,153.9Z" style="fill:#263238"></path><path d="M482.14,157.24c1.41,6,2.73,9.12,6.65,13.86a.11.11,0,0,1-.16.15c-4.47-4.44-6.14-8.35-6.67-13.95C481.92,156.92,482.05,156.86,482.14,157.24Z" style="fill:#263238"></path><path d="M517.67,177.79s-.14-7.61-.94-10.94-8.33-14.66-10.87-13.17c-3.28,1.92-.21,9.32,1.76,12.74,0,0-7.58,4.45-6.53,10.23S517.67,177.79,517.67,177.79Z" style="fill:#f7a9a0"></path><path d="M505.13,154.51c-1.72,3.9,1.16,8.23,2.83,11.7a.36.36,0,0,1-.26.52c-3.06,2.07-6.76,5.88-6.81,9.78a.09.09,0,0,1-.18,0c-.52-4.18,2.82-8.23,6.31-10.28-1.76-3.53-4.46-8-1.92-11.75C505.11,154.47,505.14,154.48,505.13,154.51Z" style="fill:#263238"></path><path d="M527.2,186.26l20.2,17.56s15.19-12.67,21.62-20.9c3.6-4.61.79-6.56-4.48-6.11C546.11,178.4,527.2,186.26,527.2,186.26Z" style="fill:#9E1528"></path><path d="M562,186.49a9.91,9.91,0,0,0-1.34,2.27,10.52,10.52,0,0,0,1.8-1.92,10.1,10.1,0,0,0,1.35-2.26A10.21,10.21,0,0,0,562,186.49Zm-23.54,2.67a10.09,10.09,0,0,0-1.33,2.27,10.43,10.43,0,0,0,1.8-1.9,10.62,10.62,0,0,0,1.35-2.28A10.57,10.57,0,0,0,538.42,189.16Zm12.29-9.48a10.39,10.39,0,0,0-2.55.65,10.07,10.07,0,0,0,2.63-.06,11,11,0,0,0,2.55-.65A10,10,0,0,0,550.71,179.68Zm.24,14.66a10.78,10.78,0,0,0-.65-2.54,9.63,9.63,0,0,0,.06,2.63A10.51,10.51,0,0,0,551,197,10.58,10.58,0,0,0,551,194.34Z" style="fill:#fff"></path><path d="M549.81,200.15A176.74,176.74,0,0,0,533,185s-.15.1-.12.13c4.36,4.39,13.65,12.5,16.78,15.19C549.7,200.38,549.87,200.21,549.81,200.15Z" style="fill:#263238"></path><path d="M569,182.92c-6.42,8.24-21.61,20.9-21.61,20.9L539,196.53l27.87-19.75C570.55,177.06,572,179.06,569,182.92Z" style="opacity:0.1"></path><path d="M594.89,231.17c-1.69.79-51.27,0-51.27,0l4.22-18.9s-3.28-5.21-2.92-10.8a9,9,0,0,1,.35-1.78c.07-.25.16-.52.26-.8,1.57-4.4,5.84-10.73,9.38-15.06a34.73,34.73,0,0,1,3.77-4.08c3.86-3.31,7.81-3.75,11.52-2.32h0a16.54,16.54,0,0,1,4.64,2.84A35,35,0,0,1,583,191a113,113,0,0,1,6.61,17.4c.08.22.14.45.21.68A165.59,165.59,0,0,1,594.89,231.17Z" style="fill:#9E1528"></path><path d="M574.88,231.06c-.11.15-.21.3-.32.44h.72l.07-.08a10.76,10.76,0,0,0,1.34-2.27A11.63,11.63,0,0,0,574.88,231.06Zm14.92-22a10.8,10.8,0,0,0-1.35,2.27,9.32,9.32,0,0,0,1.56-1.58ZM562,186.49a9.91,9.91,0,0,0-1.34,2.27,10.52,10.52,0,0,0,1.8-1.92,10.1,10.1,0,0,0,1.35-2.26A10.21,10.21,0,0,0,562,186.49Zm-5.11,23.24a10.18,10.18,0,0,0-1.33,2.26,10.17,10.17,0,0,0,1.81-1.9,10.28,10.28,0,0,0,1.34-2.27A9.68,9.68,0,0,0,556.85,209.73Zm20-21.22a10.72,10.72,0,0,0-2.27-1.33,10.28,10.28,0,0,0,1.91,1.82,10.18,10.18,0,0,0,2.27,1.33A11.31,11.31,0,0,0,576.87,188.51ZM549,221.06a11.25,11.25,0,0,0-2.27-1.35,9.4,9.4,0,0,0,1.9,1.83,10.45,10.45,0,0,0,2.26,1.34A10.17,10.17,0,0,0,549,221.06Zm23.92-6.13a10.48,10.48,0,0,0-2.26-1.35,9.57,9.57,0,0,0,1.9,1.81,9.94,9.94,0,0,0,2.27,1.35A9.91,9.91,0,0,0,572.9,214.93Zm-27.52-8.7a2.45,2.45,0,0,0,.08.29c.21-.07.42-.14.63-.23A4.34,4.34,0,0,0,545.38,206.23Zm38.93,15.19a10.7,10.7,0,0,0-2.56.65,10.11,10.11,0,0,0,2.64-.06,10.51,10.51,0,0,0,2.55-.65A10.08,10.08,0,0,0,584.31,221.42ZM566.7,200a10.14,10.14,0,0,0-2.56.65,11.1,11.1,0,0,0,2.64-.07,10.51,10.51,0,0,0,2.55-.65A9.63,9.63,0,0,0,566.7,200ZM551,194.34a10.78,10.78,0,0,0-.65-2.54,9.63,9.63,0,0,0,.06,2.63A10.51,10.51,0,0,0,551,197,10.58,10.58,0,0,0,551,194.34Zm11,32.27a10.49,10.49,0,0,0-.66-2.56,10.56,10.56,0,0,0,.07,2.64,10.09,10.09,0,0,0,.65,2.54A10.92,10.92,0,0,0,561.92,226.61Zm31.41,4.53a10.71,10.71,0,0,0-.67-2.57,10.09,10.09,0,0,0,.09,2.64l0,.16.59,0ZM581.2,201.27a11.11,11.11,0,0,0-.67-2.56,12.18,12.18,0,0,0,.73,5.2A11.64,11.64,0,0,0,581.2,201.27Z" style="fill:#fff"></path><path d="M557.78,210.41a47.81,47.81,0,0,1,7.14,1.24c1.17.3,2.31.66,3.45,1q.84.28,1.71.54a7.69,7.69,0,0,0,1.84.36c.05,0,.05.09,0,.09a13.19,13.19,0,0,1-1.78-.05,12.34,12.34,0,0,1-1.69-.34c-1.18-.3-2.35-.65-3.53-1-2.37-.63-4.75-1.26-7.17-1.72C557.64,210.58,557.67,210.39,557.78,210.41Z" style="fill:#263238"></path><path d="M551.81,212.49a54.16,54.16,0,0,1,6-.24c1,0,2,.1,3,.21l1.42.17c.52.07,1,.21,1.55.28,0,0,0,.09,0,.08-.5,0-1,0-1.49,0l-1.49-.05-3-.1c-2-.09-4-.15-6-.17C551.7,212.65,551.71,212.5,551.81,212.49Z" style="fill:#263238"></path><path d="M577.87,180.38c12.41,5.75,43.06,21.27,42.24,31.22-.75,9.18-8.33,16.47-15,12-6.09-4-28.14-27.26-33.68-35.39C567.46,182.41,567.44,175.54,577.87,180.38Z" style="fill:#f7a9a0"></path><path d="M591.47,216l9-25.2s-17.33-9.55-27.33-12.54c-5.61-1.67-6.4,1.66-4.07,6.4C577.27,201.28,591.47,216,591.47,216Z" style="fill:#9E1528"></path><path d="M591.47,216l9-25.2s-17.33-9.55-27.33-12.54c-5.61-1.67-6.4,1.66-4.07,6.4C577.27,201.28,591.47,216,591.47,216Z" style="fill:#9E1528"></path><path d="M581.2,201.27a11.11,11.11,0,0,0-.67-2.56,10,10,0,0,0,.08,2.63,10.29,10.29,0,0,0,.64,2.54h0A11.46,11.46,0,0,0,581.2,201.27Zm-4.33-12.76a10.72,10.72,0,0,0-2.27-1.33,10.28,10.28,0,0,0,1.91,1.82,10.18,10.18,0,0,0,2.27,1.33A11.31,11.31,0,0,0,576.87,188.51ZM589.8,209a10.8,10.8,0,0,0-1.35,2.27,10.59,10.59,0,0,0,1.82-1.91,10.09,10.09,0,0,0,1.33-2.27A12,12,0,0,0,589.8,209Zm1.74-16a9.84,9.84,0,0,0-1.34,2.26,9.84,9.84,0,0,0,1.8-1.91,9.94,9.94,0,0,0,1.35-2.27A10.6,10.6,0,0,0,591.54,193Z" style="fill:#fff"></path><path d="M596.18,189.91a177.36,177.36,0,0,0-8,21.19s.14.1.16.06c2.5-5.65,6.67-17.26,8-21.15C596.44,189.94,596.22,189.84,596.18,189.91Z" style="fill:#263238"></path><path d="M591.47,216c-1.73-1.59-3.33-3.3-4.9-5.05s-3.07-3.55-4.52-5.39-2.84-3.74-4.14-5.7a68.27,68.27,0,0,1-3.64-6l4.27,5.57,4.29,5.53,4.32,5.52,2.17,2.75Z" style="fill:#263238"></path><path d="M574.38,196.06a8.29,8.29,0,0,1,1.6,1.11,11.8,11.8,0,0,1,1.38,1.36,3.39,3.39,0,0,1-.91-.41,5.46,5.46,0,0,1-.79-.57A5.94,5.94,0,0,1,574.38,196.06Z" style="fill:#263238"></path><path d="M604.24,222c4.16,7,13.52.23,14.93-5.26,3.31-12.87,1.74-32.36-1.13-44-.92-3.75-23.35,11.21-23.54,15.34C594.32,191.75,597.42,210.6,604.24,222Z" style="fill:#f7a9a0"></path><path d="M619.64,181.19c-1.5,5.17-22.14,7.93-25.2,8-.54,0-3.31-4.53-3.69-11.11-.18-3.13,8.43-18.35,13.56-20.35S621.43,175.05,619.64,181.19Z" style="fill:#f7a9a0"></path><path d="M614.6,118.47c-1.11,24.42-1.44,31.82-8,31.52s-6.21-7.7-5.1-32.11Z" style="fill:#ebebeb"></path><rect x="605.21" y="145.2" width="1.85" height="30.08" transform="translate(7.9 -27.37) rotate(2.6)" style="fill:#ebebeb"></rect><polygon points="615.59 178.18 595.09 177.25 605.48 174.66 615.59 178.18" style="fill:#ebebeb"></polygon><path d="M606.68,148c2.53.11,4.59-1.54,5.78-15.4a5.85,5.85,0,0,1-2.62,1.62c-1.55.26-4-1.92-7.25-2.07C602.59,132.13,600.78,147.71,606.68,148Z" style="fill:#9E1528"></path><path d="M590.73,178.59s-.62-6.07,1-8.9a64.16,64.16,0,0,1,11.51-13.82c3.38-3.05,4.94,2.19,2.07,6.44-4.56,6.76-3.67,6-3.67,6-.07,1.05,4.92,8-2.87,14.65C596.05,185.28,590.73,178.59,590.73,178.59Z" style="fill:#f7a9a0"></path><path d="M602.7,156.35a4.83,4.83,0,0,1,1.38-1.13,1.61,1.61,0,0,1,1.63,0,2.36,2.36,0,0,1,.84,1.44,5.09,5.09,0,0,1,.07,1.74,8,8,0,0,1-1.24,3.29c-.6,1-1.23,2.07-1.87,3.1l-1.92,3.08-.12.19-.06.09a.29.29,0,0,0,0,.18.11.11,0,0,1,0,.05l0,0,0,.05,0,.06.24.39c.15.25.29.51.42.77a9.7,9.7,0,0,1,.61,1.66,14.16,14.16,0,0,1,0,7.11,12.8,12.8,0,0,0,.51-7.23,10.19,10.19,0,0,0-.61-1.76c-.13-.28-.28-.56-.43-.83l-.24-.39,0,0h0v.06a.27.27,0,0,1,0,.17l.07-.1.12-.19c.66-1,1.31-2,1.93-3.08s1.25-2.08,1.84-3.14a10.35,10.35,0,0,0,.82-1.67,7.56,7.56,0,0,0,.39-1.83,5.31,5.31,0,0,0-.15-1.86,2.51,2.51,0,0,0-1-1.57,1.79,1.79,0,0,0-1.83.1A4.38,4.38,0,0,0,602.7,156.35Z" style="fill:#263238"></path><path d="M622.52,171.69c.27-4.23-.64-12.89-4-18.09-2.28-3.52-15.35-9.71-16.55-7.4s0,5.36,3,7c1.09.61,6.73,4.43,6.82,6.2.13,2.54-2.21,9.2-2.21,9.2Z" style="fill:#f7a9a0"></path><path d="M620.44,172.88c.27-4.24-.64-12.9-4-18.1-2.27-3.52-17-6.15-18.19-3.85s.65,3.67,3.63,5.35c1.09.61,7.77,2.58,7.87,4.35.13,2.54-2.21,9.2-2.21,9.2Z" style="fill:#f7a9a0"></path><path d="M620.11,166.13a42.24,42.24,0,0,0-1.44-6.84,19.54,19.54,0,0,0-1.3-3.27,7.93,7.93,0,0,0-2.19-2.79,11.14,11.14,0,0,0-3.14-1.66,23.73,23.73,0,0,0-3.4-.92c-1.15-.23-2.31-.4-3.47-.54l-1.74-.19c-.59-.06-1.15-.14-1.77-.16-.3,0-.61,0-.91.05a5.54,5.54,0,0,0-.9.19,3.57,3.57,0,0,0-1.62.92,2.09,2.09,0,0,0-.61,1.81,2.75,2.75,0,0,0,.33.91,5.37,5.37,0,0,0,.59.73,11,11,0,0,0,3,1.92,34.07,34.07,0,0,0,3.23,1.38c1.09.42,2.21.77,3.26,1.23a2.58,2.58,0,0,1,1.27,1,3.52,3.52,0,0,1,.22,1.63,18.25,18.25,0,0,1-.53,3.43c-.27,1.13-.59,2.25-1,3.36.42-1.09.79-2.2,1.1-3.32a18.28,18.28,0,0,0,.66-3.45,3.74,3.74,0,0,0-.21-1.8,2.89,2.89,0,0,0-1.41-1.16c-1.07-.5-2.18-.87-3.25-1.31s-2.13-.9-3.17-1.41a10.47,10.47,0,0,1-2.84-1.85,3.8,3.8,0,0,1-.51-.63,2.23,2.23,0,0,1-.26-.72,1.57,1.57,0,0,1,.47-1.35,3.15,3.15,0,0,1,1.39-.76,5.55,5.55,0,0,1,.81-.17c.28,0,.55,0,.83,0,.55,0,1.14.08,1.72.14l1.73.18c1.15.13,2.3.29,3.44.51a15.85,15.85,0,0,1,6.37,2.41,7.46,7.46,0,0,1,2.14,2.61,21.27,21.27,0,0,1,1.36,3.18A47.42,47.42,0,0,1,620.11,166.13Z" style="fill:#263238"></path><path d="M618.22,179.51c1.81-3.84,4.16-12.23,2.95-18.3-.82-4.11-13.59-8.64-15.55-6.93s-.38,4.6,2.64,7c1,.78,5.44,2.64,4.88,4.31-.82,2.42-2.88,8.35-2.88,8.35Z" style="fill:#f7a9a0"></path><path d="M620.79,171.37a36.11,36.11,0,0,0,.86-6.21,16.73,16.73,0,0,0-.14-3.16l-.15-.79c-.08-.25-.15-.51-.25-.77a6.17,6.17,0,0,0-.38-.72,4.62,4.62,0,0,0-.51-.64,15.91,15.91,0,0,0-5.34-3.39,29.89,29.89,0,0,0-6-1.9,7.09,7.09,0,0,0-.82-.09,4.71,4.71,0,0,0-.83.06,4.1,4.1,0,0,0-1.57.55,2.67,2.67,0,0,0-1.14,1.27,2.64,2.64,0,0,0,0,1.71,6.37,6.37,0,0,0,1.93,2.6c.79.69,1.61,1.35,2.46,2s1.72,1.2,2.6,1.76a6.72,6.72,0,0,1,1.23.9.49.49,0,0,1,.16.26,1.34,1.34,0,0,1,0,.35,5,5,0,0,1-.07.76,36.51,36.51,0,0,1-1.82,6c.43-.95.82-1.92,1.18-2.9a21,21,0,0,0,.92-3,4.17,4.17,0,0,0,.09-.8,1.49,1.49,0,0,0,0-.42.87.87,0,0,0-.23-.41,7.38,7.38,0,0,0-1.27-1c-.87-.57-1.72-1.16-2.54-1.8s-1.61-1.31-2.39-2a5.88,5.88,0,0,1-1.76-2.38,1.95,1.95,0,0,1,1-2.36,3.43,3.43,0,0,1,1.36-.46,4,4,0,0,1,1.47,0,28.32,28.32,0,0,1,5.92,1.82,16.22,16.22,0,0,1,5.22,3.2,5.17,5.17,0,0,1,.48.57c.15.2.23.44.36.65s.16.48.25.71l.17.75a18.66,18.66,0,0,1,.21,3.09A40.65,40.65,0,0,1,620.79,171.37Z" style="fill:#263238"></path><path d="M619,182.35c.53-1.82,4-8,4.7-10.45,1.72-5.64-10.8-16-13.94-11.67-2.15,3,5.59,8.53,5.17,9.52a16.37,16.37,0,0,1-2.87,4.64Z" style="fill:#f7a9a0"></path><path d="M612.81,173.52c.4-.51.79-1,1.15-1.58a12.32,12.32,0,0,0,1-1.69,1.66,1.66,0,0,0,.15-.52,1.19,1.19,0,0,0-.19-.54,5.43,5.43,0,0,0-.59-.81c-.42-.51-.85-1-1.28-1.48a27.39,27.39,0,0,1-2.41-3,5.47,5.47,0,0,1-.79-1.68,2.44,2.44,0,0,1,.1-1.71,1.84,1.84,0,0,1,1.31-1,4.32,4.32,0,0,1,1.82.07,12.85,12.85,0,0,1,3.49,1.52,17.83,17.83,0,0,1,3.09,2.32,16.52,16.52,0,0,1,2.58,2.89,17.16,17.16,0,0,0-5.43-5.59,12.33,12.33,0,0,0-3.61-1.65,4.7,4.7,0,0,0-2.05-.1,2.4,2.4,0,0,0-1.71,1.26,3,3,0,0,0-.13,2.11,6.17,6.17,0,0,0,.89,1.82,22.38,22.38,0,0,0,2.52,3c.45.47.91.93,1.34,1.41a6.94,6.94,0,0,1,.59.75,1.07,1.07,0,0,1,.15.36,1.35,1.35,0,0,1-.1.42A22.52,22.52,0,0,1,612.81,173.52Z" style="fill:#263238"></path><path d="M590.75,178.05a19.62,19.62,0,0,0,.25,3,26.6,26.6,0,0,0,.62,2.92,14.7,14.7,0,0,0,2.64,5.38l-.06-.13c.31,2.49.69,5,1.11,7.44s.94,4.93,1.49,7.38,1.22,4.87,2,7.25c.39,1.2.82,2.38,1.31,3.53a24,24,0,0,0,1.69,3.36,41.61,41.61,0,0,1-2.67-7c-.7-2.4-1.28-4.83-1.83-7.27s-1-4.89-1.45-7.35-.84-4.93-1.17-7.41v-.07l0-.06a14.31,14.31,0,0,1-2.71-5.15,28,28,0,0,1-.75-2.86A24.2,24.2,0,0,1,590.75,178.05Z" style="fill:#263238"></path><path d="M569.6,180.05c-.33.88-5.36,6.26-9.49,5.57-1.34-.23-.43-7.62-.43-7.62l0-.56-.8-7.85,9.67-4.68,1.39-.61s.07,2.16.14,4.85c0,.13,0,.25,0,.39s0,.29,0,.43c0,.41,0,.82,0,1.23s0,.61,0,.94v1A51.13,51.13,0,0,1,569.6,180.05Z" style="fill:#f7a9a0"></path><path d="M570,169.15a15.84,15.84,0,0,1-10.4,8.29l-.8-7.85,9.67-4.68,1.39-.61S570,166.46,570,169.15Z" style="fill:#263238"></path><path d="M549.41,155.36c-3.88,13.29,3.64,17.12,6.51,17.95,2.6.76,11.56,3,16.79-9.81s.29-18.82-5.57-20.87S553.3,142.07,549.41,155.36Z" style="fill:#f7a9a0"></path><path d="M551.81,154.81c.33,0,.63,0,1,0a1.58,1.58,0,0,0,1-.18.49.49,0,0,0,.12-.59,1.22,1.22,0,0,0-1.11-.54,1.84,1.84,0,0,0-1.24.39A.52.52,0,0,0,551.81,154.81Z" style="fill:#263238"></path><path d="M560.93,156.45c-.31-.11-.58-.26-.88-.39a1.63,1.63,0,0,1-.81-.57.49.49,0,0,1,.13-.59,1.22,1.22,0,0,1,1.24,0,1.76,1.76,0,0,1,1,.86A.52.52,0,0,1,560.93,156.45Z" style="fill:#263238"></path><path d="M558.37,158.62s.06.06,0,.09c-.25.91-.39,2,.37,2.5,0,0,0,.06,0,0C557.79,160.87,558,159.44,558.37,158.62Z" style="fill:#263238"></path><path d="M559.42,157.86c1.5.24.9,3.23-.49,3S558.16,157.65,559.42,157.86Z" style="fill:#263238"></path><path d="M560,158.13c.23.22.42.57.73.67s.69-.15,1-.4c0,0,0,0,0,0-.11.58-.45,1.12-1.08,1.08s-.87-.62-.9-1.23C559.75,158.18,559.88,158,560,158.13Z" style="fill:#263238"></path><path d="M553.32,157.14s-.08,0-.09.07c-.15.93-.47,2-1.37,2.12,0,0,0,0,0,0C552.91,159.44,553.33,158.05,553.32,157.14Z" style="fill:#263238"></path><path d="M552.68,156c-1.47-.4-2.16,2.56-.8,2.93S553.91,156.35,552.68,156Z" style="fill:#263238"></path><path d="M552,156.07c-.27.1-.57.33-.86.28s-.49-.43-.63-.78c0,0,0,0,0,0-.15.56-.1,1.19.42,1.43s1-.19,1.22-.72C552.17,156.2,552.13,156,552,156.07Z" style="fill:#263238"></path><path d="M556.82,166.43c-.25.18-.52.45-.86.42a2.34,2.34,0,0,1-1-.39,0,0,0,0,0,0,0,1.3,1.3,0,0,0,1.11.69,1,1,0,0,0,.86-.72S556.86,166.4,556.82,166.43Z" style="fill:#263238"></path><path d="M553.68,162.27s-.48,1.34-.62,2c0,.06.14.12.35.18h0a3.17,3.17,0,0,0,3.24-.51.07.07,0,0,0-.07-.12,4.73,4.73,0,0,1-3,.21c0-.19.9-2.26.8-2.29a5.79,5.79,0,0,0-1.55,0c.93-2.81,2.3-5.46,3.19-8.27a.09.09,0,0,0-.16-.08,47.42,47.42,0,0,0-3.81,8.76C552,162.53,553.4,162.33,553.68,162.27Z" style="fill:#263238"></path><path d="M553.53,164.22a3.82,3.82,0,0,0,1.16,1.55,1.76,1.76,0,0,0,1,.34c.78,0,1-.65,1-1.26a4.1,4.1,0,0,0-.09-1A5,5,0,0,1,553.53,164.22Z" style="fill:#263238"></path><path d="M554.69,165.77a1.76,1.76,0,0,0,1,.34c.78,0,1-.65,1-1.26A1.78,1.78,0,0,0,554.69,165.77Z" style="fill:#ff9bbc"></path><path d="M572.56,164.24a5.73,5.73,0,0,1-2.54-5.05,15,15,0,0,1-5.37-5.68c.06.29.44,2.43.67,3.52-8.5-2.83-10.29-9.88-10.29-9.88a15.14,15.14,0,0,0-4.56,5s.67-5.36,3.91-8.57a8.71,8.71,0,0,1,8.46-2.46,12.44,12.44,0,0,1,11.53,5.35C579.2,153.43,572.56,164.24,572.56,164.24Z" style="fill:#263238"></path><path d="M558.89,154.67a16.38,16.38,0,0,0,4.25,2.26s0,0,0,0a13.76,13.76,0,0,1-5.87-4.75,13.34,13.34,0,0,1-1.53-2.89,9.1,9.1,0,0,1-.7-3.49.07.07,0,0,0-.14,0,10.49,10.49,0,0,0,.23,3.53,9.53,9.53,0,0,0,1.54,3.15,10.81,10.81,0,0,0,2.22,2.21" style="fill:#263238"></path><path d="M570.3,163.9s3.81-3.64,5.52-2.2-1.74,7.14-4.17,7.53a2.35,2.35,0,0,1-2.83-1.85Z" style="fill:#f7a9a0"></path><path d="M574.79,163.31a0,0,0,1,1,0,.06,6,6,0,0,0-3.73,3,1.3,1.3,0,0,1,2,0s0,.1-.06.08a1.44,1.44,0,0,0-1.65.18,7,7,0,0,0-1,1.11c-.1.13-.34,0-.25-.15l0,0C570.45,165.59,572.58,163.08,574.79,163.31Z" style="fill:#263238"></path></g><g id="freepik--character-2--inject-106"><path d="M434.92,451.83c-2,.66-61.94-.1-64.12-1.52-.84-.53,3.37-56.9,3.37-56.9l38.71.39-4.12,37.71s22,10.19,24.26,12S437,451.18,434.92,451.83Z" style="fill:#d3766a"></path><path d="M434.92,451.83c-2,.65-61.94-.1-64.12-1.53-.39-.23.29-12.33,1.14-25.31h37.54l-.72,6.51s22,10.2,24.27,12S437,451.18,434.92,451.83Z" style="fill:#fff"></path><path d="M435.58,452.65c-2.14.7-62.63.13-64.94-1.37-.89-.55.39-20.5.39-20.61h37.43l0,.66s23.25,10.66,25.61,12.58S437.72,452,435.58,452.65Z" style="fill:#a6a6a6"></path><path d="M435.42,450.28c-10.28-.35-51.78-.78-62-.35-.08,0-.08.06,0,.07,10.18.57,51.68.66,62,.45C435.63,450.44,435.64,450.29,435.42,450.28Z" style="fill:#263238"></path><path d="M412.84,430.82c-4-.79-9-.22-12.12,2.63-.12.12,0,.29.17.25a56.29,56.29,0,0,1,11.93-2.37A.26.26,0,0,0,412.84,430.82Z" style="fill:#263238"></path><path d="M415.74,432.61c-4-.8-9-.22-12.11,2.63-.12.11,0,.28.17.24a56.82,56.82,0,0,1,11.92-2.36A.26.26,0,0,0,415.74,432.61Z" style="fill:#263238"></path><path d="M418.65,434.39c-4-.79-9-.21-12.12,2.64-.12.11,0,.28.17.24a57.61,57.61,0,0,1,11.92-2.37A.26.26,0,0,0,418.65,434.39Z" style="fill:#263238"></path><path d="M412,429.77H370.33S378,333.25,377.71,332c-.42-2.18-2.88-12-6.16-24.91-1-4-2.13-8.35-3.28-12.83-3.11-12.11-6.53-25.34-9.52-36.86-4.48-17.26-8-30.66-8-30.66H386.1s4.12,13.05,9.31,30c8.45,27.6,19.75,65.58,20.86,74.81C417.63,342.71,412,429.77,412,429.77Z" style="fill:#37474f"></path><path d="M410.07,422.17c-6.35-.14-4.52-.19-10.88-.25-3.11,0-23.55-.21-26.46.27-.06,0-.06.12,0,.13,2.91.48,23.35.31,26.46.28,6.36-.06,4.53-.12,10.88-.25A.09.09,0,0,0,410.07,422.17Z" style="fill:#263238"></path><path d="M357.2,231.48l6.47,22.82L370,277.16c2.1,7.62,4.13,15.26,6.16,22.9s4,15.3,5.9,23c.45,1.93.9,3.85,1.28,5.8.11.49.18,1,.26,1.49,0,.27,0,.57,0,.83l-.06.74-.23,3-.92,11.82-1.86,23.64L377.39,416l0,.25-.47-.29,2.94-45.64,1.74-23.66.88-11.82.21-3,.06-.74c0-.23,0-.42,0-.64-.09-.48-.15-1-.26-1.44-.38-1.92-.84-3.84-1.29-5.76-3.71-15.36-7.84-30.63-11.86-45.92Z" style="fill:#263238"></path><path d="M385.25,226.69c-2.45,19-11.32,50.49-14.73,76.3-8-31.27-19.75-76.3-19.75-76.3Z" style="fill:#263238"></path><path d="M300.11,451.53c2.05.64,52.37.86,54.55-.6.84-.54,1.14-9,1.2-19.29v-.32c0-2.11,4.88-37.65,4.88-37.65l-38,.77-4.4,37.33,0,.64s-14.2,8.9-16.43,10.76S298.06,450.9,300.11,451.53Z" style="fill:#d3766a"></path><path d="M356.57,425c-.43,3.4-.71,5.83-.71,6.33v.33c-.06,10.26-.36,18.74-1.2,19.28-2.18,1.46-52.5,1.24-54.55.6s-.39-6.52,1.83-8.36,16.42-10.76,16.42-10.76l0-.64.8-6.78Z" style="fill:#fff"></path><path d="M297.63,452.65c2.13.7,56.25.13,58.56-1.37.89-.55-.39-20.5-.39-20.61H318.37l0,.66S301.52,442,299.15,443.91,295.49,452,297.63,452.65Z" style="fill:#a6a6a6"></path><path d="M297.79,450.28c10.28-.35,45.4-.78,55.59-.35.08,0,.08.06,0,.07-10.18.57-45.31.66-55.59.45C297.57,450.44,297.57,450.29,297.79,450.28Z" style="fill:#263238"></path><path d="M321.41,431.92c5.13-1.41,11.51-1.4,15.67,1.41.16.11,0,.32-.2.3a80.53,80.53,0,0,0-15.41-1.13A.29.29,0,0,1,321.41,431.92Z" style="fill:#263238"></path><path d="M317.8,434.31c5.12-1.41,11.5-1.4,15.66,1.41.17.11,0,.32-.2.3a80.53,80.53,0,0,0-15.41-1.13C317.47,434.9,317.43,434.41,317.8,434.31Z" style="fill:#263238"></path><path d="M314.18,436.7c5.13-1.41,11.51-1.4,15.67,1.41.16.11,0,.33-.2.3a80.53,80.53,0,0,0-15.41-1.13C313.86,437.29,313.82,436.81,314.18,436.7Z" style="fill:#263238"></path><path d="M385.25,226.69s-5.35,32.65-5.72,33.7c0,0-2,.94-5.58,2.6L358.08,429.6l-41.88.17,23.34-203.08Z" style="fill:#37474f"></path><path d="M356.65,422.15c-6.4-.11-4.56-.17-11-.2-3.13,0-23.71-.11-26.64.38-.06,0-.06.12,0,.13,2.93.48,23.51.21,26.64.17,6.4-.09,4.56-.14,11-.3A.09.09,0,0,0,356.65,422.15Z" style="fill:#263238"></path><path d="M381.27,259.37a78.35,78.35,0,0,0-12,6.27c-.15.1,0,.33.12.25,4-2,8.17-3.85,12.1-6A.27.27,0,0,0,381.27,259.37Z" style="fill:#263238"></path><path d="M379.73,240.67c-.66,3.91-1,7.87-1.46,11.81-.11,1-.22,1.89-.32,2.83a5.65,5.65,0,0,1-.68,2.49c-.85,1.31-2.37,1.93-3.75,2.53-.16.07-.1.33.08.27a9.08,9.08,0,0,0,4-2.11c1.26-1.32,1.22-3.33,1.41-5a109.17,109.17,0,0,0,.92-12.76A.09.09,0,0,0,379.73,240.67Z" style="fill:#263238"></path><path d="M375,241.87c-.14,2.81-.45,5.63-.69,8.43-.11,1.39-.21,2.78-.29,4.17s-.26,2.85-.21,4.27a.09.09,0,0,0,.17,0c.23-1.33.26-2.72.38-4.07s.21-2.85.29-4.27c.16-2.85.23-5.71.49-8.54C375.13,241.78,375,241.78,375,241.87Z" style="fill:#263238"></path><polygon points="373.09 267.17 370.85 286.33 368.51 305.48 363.69 343.76 353.92 418.35 362.8 343.64 367.83 305.39 370.42 286.27 373.09 267.17" style="fill:#263238"></polygon><path d="M373.11,185.69c8.92,16.52,20,34.23,27.62,35.73,5.93,1.16,30.26-3.1,40-12.86,2.15-2.15-15.71-16.64-17.51-15.48-5.31,3.43-19.35,6.28-20.15,5.59-1.06-.9-13.39-12.65-21.91-20.11C369.7,168.51,368.5,177.15,373.11,185.69Z" style="fill:#d3766a"></path><path d="M446.83,206.72c-3.61,3.43-13.72,7.56-16.55,7.62s-10.42-16.9-9-19.46,14.39-13.17,19.45-13.6S450.56,203.16,446.83,206.72Z" style="fill:#d3766a"></path><path d="M423.13,192.68a41.25,41.25,0,0,0,3.35-11.52c.48-4.77.67-11.91,3.24-11.74,5.29.34,4.82,18.14,4.82,18.14s-1.46,7.82-6.73,7.95A5.23,5.23,0,0,1,423.13,192.68Z" style="fill:#d3766a"></path><path d="M433,183.51c.63,2.56,2.7,1.9,2.7,1.9l14.45-2.53s10.37-4.81,9.42-7.67c-1.62-4.94-23.23,5-25.28,5.55A2.22,2.22,0,0,0,433,183.51Z" style="fill:#d3766a"></path><path d="M442,180.33a65.76,65.76,0,0,1,1.48-6.42c.5-1.22,13.24-17.62,18.85-22.67,1.38-1.24,2.07-1.75,2.71-1.6,0,0-16.88,23.5-18.61,25.78-1,1.31-2,5.35-2,5.35Z" style="fill:#c7c7c7"></path><path d="M428.61,174.2h0c-1.94.23-6.71.2-8.34,1.44a4.9,4.9,0,0,0-1.92,5.41,2.94,2.94,0,0,0,.24.63,4.24,4.24,0,0,0,1.84,1.79,2.58,2.58,0,0,0,.37.19,7.32,7.32,0,0,0,2.27.65c.76.07,1.49.09,2.15.18a4.67,4.67,0,0,1,1.25.31l1.09-.54a9.57,9.57,0,0,1,1.7-3c1.5-1.54,6.59-3.36,8.47-4.12a3,3,0,0,0,.7-.33.39.39,0,0,0,.05-.25v-.08a.41.41,0,0,0,0-.11h0c0-.08,0-.17,0-.27a.5.5,0,0,0,0-.12c-.06-.29-.14-.61-.23-.93l0-.11a6.5,6.5,0,0,0-.3-.86,1.85,1.85,0,0,0-.16-.34l0,0,0,0C437.41,173.44,430.56,174,428.61,174.2Zm-.49,2.94a1.88,1.88,0,0,1,.49,1c.19.87-.64,2.64-3.7,3.83l-.21.08-.2.07-.13,0a1,1,0,0,1-.23.06l-.39.09-.26,0a4.38,4.38,0,0,1-.8,0h-.12l-.34-.06-.15,0h0l-.07,0h0l-.07,0,0,0-.11,0a.75.75,0,0,1-.18-.08l-.13-.07h0a.41.41,0,0,1-.11-.07l0,0-.11-.07-.11-.08h0l-.09-.08a2.36,2.36,0,0,1-.43-.48l0,0a2.38,2.38,0,0,1-.22-.39,2.81,2.81,0,0,1-.19-1.17,2.92,2.92,0,0,1,1.43-2.38,5.61,5.61,0,0,1,2.2-.74C426.32,176.05,427.54,176.52,428.12,177.14Z" style="fill:#9E1528"></path><path d="M428.12,177.14a2.61,2.61,0,0,1,.81,3c-.68,2-4.54,3.39-7.05,2.72a2.4,2.4,0,0,1-1.86-2.58,3.58,3.58,0,0,1,.1-.78,2.81,2.81,0,0,0,.19,1.17,2.38,2.38,0,0,0,.22.39l0,0a2.36,2.36,0,0,0,.43.48l.09.08h0l.11.08.11.07,0,0a.41.41,0,0,0,.11.07h0l.13.07a.75.75,0,0,0,.18.08l.11,0,0,0,.07,0h0l.07,0h0l.15,0,.34.06h.12a4.38,4.38,0,0,0,.8,0l.26,0,.39-.09a1,1,0,0,0,.23-.06l.13,0,.2-.07.21-.08c3.06-1.19,3.89-3,3.7-3.83A1.88,1.88,0,0,0,428.12,177.14Z" style="opacity:0.1"></path><path d="M437.64,173.64c.23.19,1.07,2.82.79,3.13a3,3,0,0,1-.7.33,2.82,2.82,0,0,0-1.15-2.09c-1-.9-7.79-.82-8-.81C430.56,174,437.41,173.44,437.64,173.64Z" style="opacity:0.1"></path><path d="M442,180.33h0c-.32,0-.55,0-.6,0-.48.58-3.46,4.37-4.62,6-.3.41-.73,1-1.21,1.64h0c-1.42,1.94-3.28,4.7-3.39,6.47-.13,2.38,1.45,3.75,3.87,3.29,3.34-.62,5.94-5.92,7-8.57a34.23,34.23,0,0,0,1.55-6.29,8.52,8.52,0,0,0,.19-2,2.08,2.08,0,0,0-.47-.15A20.73,20.73,0,0,0,442,180.33Zm-.22,5.13c.58.37.93.76.44,2.41a19.93,19.93,0,0,1-3.33,6l-.71.94c-.11.14-.23.28-.35.41-1.3,1.38-3.18,1.78-3.84.22-.8-1.91,3.73-8.07,4.82-9.19S441.08,185,441.74,185.46Z" style="fill:#9E1528"></path><path d="M444.75,180.91a8.52,8.52,0,0,1-.19,2c-.19-1.07-1.68-1.5-2.66-1.21s-6.21,6.12-6.37,6.31c.48-.67.91-1.23,1.21-1.64,1.16-1.59,4.14-5.38,4.62-6C441.55,180.13,444.57,180.77,444.75,180.91Z" style="opacity:0.1"></path><path d="M472.14,159.14s.25.6-.78,1.44-13.51,8.42-21.1,12.53l-.44.24-.72.38-.74.39c-.6.3-1.07.55-1.56.75h0a15.08,15.08,0,0,1-4.14,1L441,176h0l-2.56.29-.63-2.3,2.05-.34c.66-.12,1.39-.25,2-.38a10.9,10.9,0,0,0,1.61-.42l2.58-1.24,2.38-1.14.65-.32.36-.17Z" style="fill:#dbdbdb"></path><path d="M445.52,173.05a.65.65,0,1,1-.29,1.26.65.65,0,0,1,.29-1.26Z" style="fill:#c7c7c7"></path><path d="M445.48,173.23a.46.46,0,0,1,.34.55.45.45,0,0,1-.88-.2A.46.46,0,0,1,445.48,173.23Z" style="fill:#ebebeb"></path><path d="M435.74,185.41s-4.67,2.1-4.37,5,4.37,1.88,4.66,1.82c-.24.11-4.48,2.15-3.88,5s4.56,1.37,4.81,1.27c-.19.18-2.78,2.6-1.83,4.68,1.65,3.59,8.43-2.42,11.6-2.09,0,0,.06,5.44.1,5.6,0,0,6.57-5.58,6.77-9.89a2.76,2.76,0,0,0-2-2.82s2.32-1.56,1.92-3.85c-.21-1.17-2.27-1.88-2.27-1.88a3.44,3.44,0,0,0,1.31-3.34,2.81,2.81,0,0,0-2.39-2.16C445.5,181.74,435.74,185.41,435.74,185.41Z" style="fill:#d3766a"></path><path d="M449.88,182.76a0,0,0,0,0,0-.08,24.57,24.57,0,0,0-14.33,2.75c-.14.08-.47.73-.31.66A39.87,39.87,0,0,1,449.88,182.76Z" style="fill:#263238"></path><path d="M451.32,188.25a.05.05,0,0,0,0-.1,23,23,0,0,0-15.45,4c-.15.11-.17.37,0,.25C439,190.39,446.75,188.45,451.32,188.25Z" style="fill:#263238"></path><path d="M436.73,198.87c4.44-3,9.4-4.3,14.68-4.89.07,0,0-.1,0-.11-2.66-.42-6,.31-8.53,1.09a14.17,14.17,0,0,0-6.25,3.75C436.56,198.78,436.64,198.93,436.73,198.87Z" style="fill:#263238"></path><path d="M435.66,185.38c-.17.09.37.31.21.41-1.75,1.09-4.78,3.2-4.21,4.82.45,1.3,2.51,1.59,3.35,1.39l2.1-.5-1.8,1.2a9.06,9.06,0,0,0-2.11,1.94,3.13,3.13,0,0,0-.76,2.47,1.81,1.81,0,0,0,1.65,1.57,5.48,5.48,0,0,0,2.69-.54l2.34-1-1.87,1.74a8.12,8.12,0,0,0-1.36,1.62,3.44,3.44,0,0,0-.61,1.88,1.62,1.62,0,0,0,.93,1.44,3.63,3.63,0,0,0,2,0,28.3,28.3,0,0,0,4.19-1.48c.69-.28,1.39-.56,2.1-.81a5.44,5.44,0,0,1,2.21-.4,5.53,5.53,0,0,0-2.13.6c-.69.29-1.36.62-2,1a25,25,0,0,1-4.2,1.73,4.22,4.22,0,0,1-2.42.06,2.32,2.32,0,0,1-1.46-2.07,4.2,4.2,0,0,1,.7-2.36,9.33,9.33,0,0,1,1.49-1.83l.47.7a6.2,6.2,0,0,1-3.17.66,2.61,2.61,0,0,1-1.61-.74,2.87,2.87,0,0,1-.78-1.56,4,4,0,0,1,1-3.13,9.65,9.65,0,0,1,2.36-2.1l.3.71c-1.07.21-3.41.14-4.38-1.79C430,188.26,434.75,185.77,435.66,185.38Z" style="fill:#263238"></path><path d="M420.67,193.77l10.69,24.83s-24.43,6.26-32.17,3.13-21.49-24-27.13-37.52c-5.76-13.8,3-11.87,8.92-6.21s21.86,19.93,22.38,20.07S420.67,193.77,420.67,193.77Z" style="fill:#9E1528"></path><path d="M420,207c-.7-1.71-1.4-3.41-2.12-5.11s-1.36-3.44-2.19-5.08c0-.07-.17,0-.14,0,.5,1.7,1.19,3.36,1.82,5s1.34,3.53,2,5.28c1.35,3.48,2.82,6.89,4.36,10.29,0,.08.15,0,.12-.06C422.7,213.86,421.44,210.39,420,207Z" style="fill:#263238"></path><path d="M372.07,184.22c5.63,13.49,19.39,34.39,27.12,37.51a20.33,20.33,0,0,0,7.61.85l-32.57-48.69C370.62,173,368.4,175.44,372.07,184.22Z" style="opacity:0.1"></path><path d="M393.05,243.47c-.91,1-57.57,2.84-57.86,2.48-.81-1,6.31-37.89,12.23-52C355,175.8,359.36,174.13,362,173c3.32-1.41,12.16-1.26,13.63-.67,1.66.67,6.17,8.79,8.4,15.3C388.45,200.73,393.83,242.62,393.05,243.47Z" style="fill:#9E1528"></path><path d="M392.28,233.5a19.82,19.82,0,0,1-2.91-4.39,8,8,0,0,0,.66-.64,11.78,11.78,0,0,0,1.38-1.78c-.05-.37-.1-.76-.16-1.14a10.14,10.14,0,0,1-1.73,2.43c-.14.16-.3.31-.46.47a18.35,18.35,0,0,1-.76-1.9,25.05,25.05,0,0,1-1.19-4.81,19,19,0,0,1-.11-4.93,9.39,9.39,0,0,1,.54-2.37,4.74,4.74,0,0,1,1.24-2,2.51,2.51,0,0,1,.46-.32l-.11-.66-.2.1a3.82,3.82,0,0,0-.57.39,5.45,5.45,0,0,0-1.42,2.24,11.52,11.52,0,0,0-.56,2.51,20.14,20.14,0,0,0,.14,5.09,25.46,25.46,0,0,0,1.25,4.93,20.55,20.55,0,0,0,.86,2.07,11.31,11.31,0,0,1-3.15,1.79,12.28,12.28,0,0,1-4.79.76,13.62,13.62,0,0,1-4.73-1.15,20.47,20.47,0,0,1-3.49-1.94c.06-.7.07-1.39.07-2.07a34.37,34.37,0,0,0-1.56-10,22.47,22.47,0,0,0-2-4.68,11.61,11.61,0,0,0-1.55-2.1,4.52,4.52,0,0,0-2.32-1.4,2.78,2.78,0,0,0-1.43.11,3.81,3.81,0,0,0-1.21.72,4,4,0,0,0-1.23,2.42,8.24,8.24,0,0,0,.09,2.63,15.73,15.73,0,0,0,.72,2.48,23.94,23.94,0,0,0,2.33,4.53,32.72,32.72,0,0,0,3.13,4,28.75,28.75,0,0,0,4.17,3.7,23.14,23.14,0,0,1-.34,2.52,15.39,15.39,0,0,1-1.6,4.61,9.46,9.46,0,0,1-3.24,3.52,9.66,9.66,0,0,1-4.58,1.39,12.2,12.2,0,0,1-2.42-.1,12.61,12.61,0,0,1-2.36-.62,14,14,0,0,1-2.2-1.07,16.18,16.18,0,0,1-2-1.4,28.33,28.33,0,0,1-6.3-7.59,44.56,44.56,0,0,1-2.66-5.25A31.74,31.74,0,0,0,349,216.5a32.58,32.58,0,0,0,2.66-9.72,15.2,15.2,0,0,0-.25-5.08,7.53,7.53,0,0,0-1-2.41,5.21,5.21,0,0,0-1.88-1.82,5.59,5.59,0,0,0-2.24-.7c-.07.19-.13.37-.2.55a5.45,5.45,0,0,1,2.17.63,4.74,4.74,0,0,1,1.7,1.63,7.59,7.59,0,0,1,.91,2.24,15.52,15.52,0,0,1,.26,4.91,34,34,0,0,1-7.38,17.49c-.48-1.12-.91-2.26-1.3-3.41a52.27,52.27,0,0,1-1.51-5.44l-.36,1.46c.35,1.41.75,2.81,1.22,4.2s.91,2.53,1.44,3.77a16.23,16.23,0,0,1-3.76,3.11,9.7,9.7,0,0,1-1.53.72c0,.12-.05.25-.08.37a9.5,9.5,0,0,0,1.78-.8,16.1,16.1,0,0,0,3.75-3,46,46,0,0,0,2.56,5,28.84,28.84,0,0,0,6.47,7.79,18,18,0,0,0,2.1,1.48,14.6,14.6,0,0,0,2.32,1.12,13.93,13.93,0,0,0,2.5.66,13.09,13.09,0,0,0,2.58.11,10.5,10.5,0,0,0,4.94-1.49,10.32,10.32,0,0,0,3.49-3.79,15.91,15.91,0,0,0,1.7-4.83,20.06,20.06,0,0,0,.31-2.16,21.43,21.43,0,0,0,3.27,1.77,14.47,14.47,0,0,0,5,1.19,12.68,12.68,0,0,0,5.07-.81,11.33,11.33,0,0,0,3.22-1.8,20.34,20.34,0,0,0,3.44,4.9C392.34,234.09,392.31,233.79,392.28,233.5Zm-20.56-5.76a27.07,27.07,0,0,1-3.67-3.35,29.07,29.07,0,0,1-3.05-3.91,23.84,23.84,0,0,1-2.25-4.38,10,10,0,0,1-.76-4.72,3.29,3.29,0,0,1,1-2,3,3,0,0,1,.95-.55,2,2,0,0,1,1-.09,3.85,3.85,0,0,1,1.89,1.19,11.48,11.48,0,0,1,1.44,1.94,23.56,23.56,0,0,1,1.93,4.53,33.81,33.81,0,0,1,1.54,9.78C371.76,226.72,371.75,227.23,371.72,227.74Zm16-24.36a3.19,3.19,0,0,1-.46.2,4.82,4.82,0,0,1-2.33.23,5.34,5.34,0,0,1-2.24-.77,4.61,4.61,0,0,1-1.59-1.72,7.2,7.2,0,0,1-.8-2.28,15.62,15.62,0,0,1,0-4.92,31,31,0,0,1,2.8-8.79c-.07-.18-.14-.36-.22-.55a32.24,32.24,0,0,0-3.09,9.27,15.74,15.74,0,0,0,0,5.08,7.52,7.52,0,0,0,.82,2.46,5.49,5.49,0,0,0,1.78,1.93,6,6,0,0,0,2.47.85,5.41,5.41,0,0,0,2.61-.24,2.75,2.75,0,0,0,.36-.15C387.78,203.77,387.74,203.57,387.7,203.38Zm-17.13-17a15.79,15.79,0,0,0-.57-2.51,23.49,23.49,0,0,0-2.08-4.66A30.78,30.78,0,0,0,365,175a29.54,29.54,0,0,0-2.14-2.32,5.36,5.36,0,0,0-.8.26,28.26,28.26,0,0,1,2.36,2.53,29.85,29.85,0,0,1,2.81,4.08,23.61,23.61,0,0,1,2,4.51,10,10,0,0,1,.48,4.76,3.32,3.32,0,0,1-1.09,1.91,3.06,3.06,0,0,1-1,.49,2.07,2.07,0,0,1-1.05,0,3.86,3.86,0,0,1-1.82-1.29,11.9,11.9,0,0,1-1.32-2,22.93,22.93,0,0,1-1.67-4.64,33.2,33.2,0,0,1-1-9.82,7.55,7.55,0,0,0-.81.45,34.33,34.33,0,0,0,1,9.57,22.92,22.92,0,0,0,1.75,4.79,10.92,10.92,0,0,0,1.43,2.18,4.53,4.53,0,0,0,2.22,1.53,2.74,2.74,0,0,0,1.45,0,3.62,3.62,0,0,0,1.25-.64A3.93,3.93,0,0,0,370.5,189,8,8,0,0,0,370.57,186.39Z" style="fill:#030402;opacity:0.1"></path><path d="M362.32,183.45c-17.19,9.06-40.91,13.29-46.47,10.7-7.47-3.5-19.48-18.86-25-27.41-1.61-2.51,18.19-14.69,19.92-12,2.09,3.24,12.64,20.19,12.94,20.44.63.53,30.64-.69,36.08-1C368.71,173.81,370.19,179.31,362.32,183.45Z" style="fill:#d3766a"></path><path d="M283.28,153.49c1.14,4.83,7.35,13.8,9.68,15.39s17.93-8.46,18.18-11.35-4.87-18.85-8.86-22S282.09,148.48,283.28,153.49Z" style="fill:#d3766a"></path><path d="M307.46,141.59c-.81,2.51-3.3.12-3.3.12s2.76,4.3.93,6.56-4.68-.81-4.89-1c.15.23,2.58,4.24.51,6.32s-4.57-1.33-4.72-1.56c.07.26.91,3.69-1,4.92-3.33,2.1-5.73-6.62-8.56-8.07,0,0-3,4.52-3.13,4.63s-2.45-8.25-.28-12a2.74,2.74,0,0,1,3.2-1.27s-1.08-2.58.5-4.27c.81-.86,2.92-.33,2.92-.33a3.46,3.46,0,0,1,.72-3.52c1.19-1.13,3.12-.42,3.12-.42s.18-2.36,1.78-3.13C298.45,127.05,309.18,136.22,307.46,141.59Z" style="fill:#d3766a"></path><path d="M293.78,131.78s0-.08,0-.06a24.49,24.49,0,0,1,10.49,10.11c.07.14-.12.31-.23.18A50.19,50.19,0,0,0,293.78,131.78Z" style="fill:#263238"></path><path d="M289.58,135.59s0-.11.07-.08a22.9,22.9,0,0,1,10.75,11.74c.07.18,0,.4-.14.2C298.69,144.08,293.29,138.25,289.58,135.59Z" style="fill:#263238"></path><path d="M296,152.42c-2.07-4.94-5.51-8.71-9.61-12.08a.06.06,0,0,1,.07-.09c2.45,1.1,4.84,3.52,6.54,5.56a14.14,14.14,0,0,1,3.17,6.54C296.19,152.45,296.05,152.53,296,152.42Z" style="fill:#263238"></path><path d="M304.16,141.71a16.11,16.11,0,0,1,1.11,2.73,5.39,5.39,0,0,1,.21,2.8,1.76,1.76,0,0,1-.74,1,2.41,2.41,0,0,1-1.23.41,3.12,3.12,0,0,1-2.33-1.07l-1.48-1.57.85,2a8.84,8.84,0,0,1,.71,2.77,3.15,3.15,0,0,1-.71,2.48,1.8,1.8,0,0,1-2.23.41,5.35,5.35,0,0,1-2-1.91l-1.4-2.14.62,2.47a8.27,8.27,0,0,1,.25,2.1,3.52,3.52,0,0,1-.51,1.91,1.62,1.62,0,0,1-1.57.69,3.52,3.52,0,0,1-1.69-1.08,28.74,28.74,0,0,1-2.7-3.52c-.43-.61-.86-1.23-1.32-1.82a5.32,5.32,0,0,0-1.63-1.54,5.55,5.55,0,0,1,1.46,1.66c.41.62.79,1.26,1.17,1.91a25,25,0,0,0,2.57,3.73,4.27,4.27,0,0,0,2,1.37,2.31,2.31,0,0,0,2.35-.94,4.23,4.23,0,0,0,.7-2.34,8.91,8.91,0,0,0-.25-2.35l-.78.33a6.34,6.34,0,0,0,2.29,2.28,2.69,2.69,0,0,0,1.75.26,2.92,2.92,0,0,0,1.51-.88,4,4,0,0,0,.9-3.14,9.41,9.41,0,0,0-.83-3l-.63.42a3.71,3.71,0,0,0,2.94,1.18,3.06,3.06,0,0,0,1.51-.59,2.23,2.23,0,0,0,.87-1.36,5.56,5.56,0,0,0-.41-3A13.19,13.19,0,0,0,304.16,141.71Z" style="fill:#263238"></path><path d="M310.75,154.66s3.6-20.76-5.2-18.2c-2.62.77-12.46,7-11.24,9,1.58,2.59,6.17.74,8.87-.88,0,0-2.22,6.89,2.11,9.87A5.23,5.23,0,0,0,310.75,154.66Z" style="fill:#d3766a"></path><path d="M306.29,136.3a11,11,0,0,0-3.06,1,24.32,24.32,0,0,0-2.83,1.55,36.87,36.87,0,0,0-5.19,3.85,5.7,5.7,0,0,0-1.1,1.31,2.25,2.25,0,0,0-.33.92,1.71,1.71,0,0,0,0,.54,1.45,1.45,0,0,0,.21.49,2.65,2.65,0,0,0,1.49,1.14,5,5,0,0,0,1.75.19,9.69,9.69,0,0,0,3.22-.84,23.24,23.24,0,0,0,2.89-1.5l-.55-.45a13.91,13.91,0,0,0-.44,2.44,12.54,12.54,0,0,0,0,2.45,8.43,8.43,0,0,0,.64,2.36,6.43,6.43,0,0,0,1.37,2,7.38,7.38,0,0,1-1.13-2.08,8.69,8.69,0,0,1-.41-2.31A12.2,12.2,0,0,1,303,147a12.86,12.86,0,0,1,.55-2.26l.32-.91-.86.46a24.54,24.54,0,0,1-2.83,1.37,9.46,9.46,0,0,1-3,.73,2.64,2.64,0,0,1-2.43-.89c-.42-.59.31-1.51,1-2.21s1.56-1.39,2.38-2.06,1.67-1.32,2.53-1.93A20.58,20.58,0,0,1,306.29,136.3Z" style="fill:#263238"></path><path d="M315.63,158.11l-25.79,12.3s15.06,22,23.39,24.89,33.82-4.13,47.7-10.94c14.2-7,5.88-11.55-2.75-11.15s-31.27.63-31.79.37S315.63,158.11,315.63,158.11Z" style="fill:#9E1528"></path><path d="M307.07,168.29c1.75-.87,3.49-1.74,5.25-2.59s3.48-1.78,5.28-2.51c.08,0,.16.09.08.14-1.58,1-3.3,1.84-4.95,2.72s-3.52,1.87-5.28,2.79c-3.49,1.83-7.05,3.52-10.63,5.15-.09,0-.14-.08-.06-.13C300.16,171.93,303.57,170.05,307.07,168.29Z" style="fill:#263238"></path><path d="M357.48,187.25c-.81.06-1.62.13-2.43.23l-.44.07,1-.41c1.2-.47,2.46-.88,3.61-1.47a.05.05,0,0,0,0-.1,40.44,40.44,0,0,0-3.86,1.26,55.37,55.37,0,0,0-5.76,2.23.06.06,0,0,0,0,.12,29.41,29.41,0,0,0,3.84-1.19l.43-.05c.39,0,.78-.1,1.17-.17.81-.13,1.6-.3,2.4-.48C357.51,187.29,357.5,187.24,357.48,187.25Z" style="fill:#263238"></path><path d="M374.38,181.5c-3.11,1.07-9.08-3.24-11.64-7-.17-.26-.05-3.15-.06-6.68,0-2.14-.09-4.51-.31-6.68-.05-.45,13.93,1.92,13.93,1.92a34.49,34.49,0,0,0-.47,8.45,4.55,4.55,0,0,0,.19.88,1.31,1.31,0,0,0,0,.15C376.5,174.24,377.38,180.45,374.38,181.5Z" style="fill:#d3766a"></path><path d="M363.21,161.15c1,3.6,4.18,12.22,11.45,11.65a9,9,0,0,0,1.39-.22.54.54,0,0,0,0-.15,5.82,5.82,0,0,1-.18-.87,34.59,34.59,0,0,1,.47-8.47S366.22,161.39,363.21,161.15Z" style="fill:#263238"></path><path d="M360.83,143.77c-1.66,4.78.39,18.86,3.72,22.1,4.83,4.71,13,5.43,17.05-.43,3.93-5.68.93-24-2.81-26.95C373.28,134.11,363.27,136.69,360.83,143.77Z" style="fill:#d3766a"></path><path d="M373.59,152.86s-.07.06-.06.1c.16.94.19,2-.62,2.48,0,0,0,.07,0,.06C374,155.2,373.9,153.73,373.59,152.86Z" style="fill:#263238"></path><path d="M372.6,152c-1.54.1-1.23,3.18.2,3.08S373.9,151.91,372.6,152Z" style="fill:#263238"></path><path d="M379.07,152.3s.08,0,.08.08c.07,1,.3,2,1.2,2.27,0,0,0,0,0,0C379.28,154.66,379,153.22,379.07,152.3Z" style="fill:#263238"></path><path d="M379.82,151.22c1.52-.27,1.95,2.79.54,3S378.54,151.45,379.82,151.22Z" style="fill:#263238"></path><path d="M371.25,150.7a10,10,0,0,0,1.15-.54,2,2,0,0,0,1.07-.77.67.67,0,0,0-.19-.78,1.63,1.63,0,0,0-1.64,0,2.35,2.35,0,0,0-1.26,1.16A.69.69,0,0,0,371.25,150.7Z" style="fill:#263238"></path><path d="M380.85,149.55c-.43,0-.83-.12-1.25-.19a2.15,2.15,0,0,1-1.25-.44.68.68,0,0,1,0-.8,1.64,1.64,0,0,1,1.58-.47,2.39,2.39,0,0,1,1.54.76A.7.7,0,0,1,380.85,149.55Z" style="fill:#263238"></path><path d="M374,161.79c.25.2.51.49.86.48a2.64,2.64,0,0,0,1-.34s.06,0,0,0a1.3,1.3,0,0,1-1.16.64,1,1,0,0,1-.83-.77C373.88,161.79,374,161.76,374,161.79Z" style="fill:#263238"></path><path d="M374.7,158.84a3.28,3.28,0,0,0,2.31,1.22,4.26,4.26,0,0,0,1.18-.06l.22-.05.2,0a.25.25,0,0,0,.17-.24h0a.3.3,0,0,0,0-.1h0v-.08c-.05-.74-.24-1.85-.24-1.85.29.11,1.71.59,1.65.21a48.59,48.59,0,0,0-2.25-9.7.09.09,0,0,0-.17,0c.37,3.05,1.28,6,1.7,9.08a5.72,5.72,0,0,0-1.58-.31c-.1,0,.39,2.14.39,2.47v0a4.48,4.48,0,0,1-3.47-.7C374.7,158.69,374.64,158.77,374.7,158.84Z" style="fill:#263238"></path><path d="M377.72,159.72a3.87,3.87,0,0,1-1.47,1.29,1.81,1.81,0,0,1-1.06.13c-.77-.16-.83-.86-.73-1.47a4.49,4.49,0,0,1,.29-.94A5,5,0,0,0,377.72,159.72Z" style="fill:#263238"></path><path d="M376.25,161a1.81,1.81,0,0,1-1.06.13c-.77-.16-.83-.86-.73-1.47A1.81,1.81,0,0,1,376.25,161Z" style="fill:#ff9bbc"></path><path d="M362,156.45c2.56-.39,2.53-6.9,2.53-6.9s3.19-1.24,4.12-7.17c0,0,2.27,5.8,12.92,4.36a9.15,9.15,0,0,0-.85-5.55,38.44,38.44,0,0,1,2.77,5.71s2.43-8.91-5.19-11.93c-3-1.2-7.6-.89-14.52,2.65,0,0-1.39-4.15-2.19-3.59s.81,4.43.81,4.43-3.07-.9-3.58-.26,2.52,1.29,2.52,1.29a6.06,6.06,0,0,0-3.8,6.94C358.31,151.37,360.72,156.64,362,156.45Z" style="fill:#263238"></path><path d="M362.18,139.41a5.53,5.53,0,0,0-5.59,4.74,10.41,10.41,0,0,0,.71,4.61,19.77,19.77,0,0,0,2.32,4.32c.05.08.16,0,.11-.09a14.65,14.65,0,0,1-1.87-4.08,13.59,13.59,0,0,1-.74-4.23,5.31,5.31,0,0,1,5.06-5.12A.08.08,0,0,0,362.18,139.41Z" style="fill:#263238"></path><path d="M372.18,133.58a21,21,0,0,0-5.2,2,15.46,15.46,0,0,0-4.29,3.08.07.07,0,1,0,.09.11,28.13,28.13,0,0,1,9.1-4.36c3-.9,6.56-1,8.88,1.46,0,0,.11,0,.07-.05C378.75,133.27,375.2,132.9,372.18,133.58Z" style="fill:#263238"></path><path d="M363.4,155.27s-3.09-4.57-5.16-3.48.2,7.69,2.6,8.63a2.44,2.44,0,0,0,3.3-1.26Z" style="fill:#d3766a"></path><path d="M358.94,153.67s-.05.05,0,.06a6.16,6.16,0,0,1,3.14,3.93,1.34,1.34,0,0,0-2-.4c-.05,0,0,.1,0,.09a1.51,1.51,0,0,1,1.65.55,7,7,0,0,1,.77,1.36c.08.15.35.07.3-.1v0C362.87,157,361.25,153.92,358.94,153.67Z" style="fill:#263238"></path></g><g id="freepik--character-1--inject-106"><path d="M258.94,450c-2,.59-58.06-1.29-60.15-2.72-.8-.53-1-8.72-1-18.62v-.31c0-2,0-4.14.06-6.27,0-.3,0-.59,0-.88.22-14.29.75-29.1.75-29.1l37,.92-1.25,29-.06,1.14-.35,6,0,.62s21.15,10.32,23.28,12.13S260.93,449.45,258.94,450Z" style="fill:#ad6359"></path><path d="M243.26,433.78q-.19-.07-.21-.12Z" style="fill:#9E1528"></path><path d="M260,450.43c-1.31.39-25.58-.29-43.24-1.21-4.08-.21-7.82-.44-10.83-.67-4.15-.32-6.94-.64-7.38-.94-.77-.53-1.24-23.45-1-26.14l37,1.23-.06,7.05s21.6,10.57,23.77,12.42S262.05,449.82,260,450.43Z" style="fill:#9E1528"></path><path d="M258.76,448.09c-9.6-.56-48.35-1.93-57.88-1.76-.07,0-.08.05,0,.06,9.5.77,48.26,1.82,57.88,1.86C259,448.25,259,448.11,258.76,448.09Z" style="fill:#263238"></path><path d="M235.45,427.65c-3.76-.83-8.4-.41-11.38,2.18-.11.1,0,.26.15.23a53.06,53.06,0,0,1,11.2-1.93A.24.24,0,0,0,235.45,427.65Z" style="fill:#263238"></path><path d="M238.12,429.39c-3.76-.84-8.4-.41-11.38,2.18-.11.1,0,.26.16.23a52.85,52.85,0,0,1,11.19-1.93A.24.24,0,0,0,238.12,429.39Z" style="fill:#263238"></path><path d="M240.79,431.13c-3.75-.84-8.4-.42-11.38,2.18-.11.1,0,.26.16.23a53,53,0,0,1,11.19-1.94A.24.24,0,0,0,240.79,431.13Z" style="fill:#263238"></path><path d="M243.46,432.86c-3.75-.83-8.39-.41-11.37,2.18-.12.1,0,.27.15.23a53.72,53.72,0,0,1,11.19-1.93A.24.24,0,0,0,243.46,432.86Z" style="fill:#263238"></path><path d="M242.73,419.15c-1.42-2.09-4.21-1.27-5.84,0a20.11,20.11,0,0,0-6.11,8.46.1.1,0,0,0,.08.14.47.47,0,0,0,.58.49c3.16-1.05,6.67-1.78,9.41-3.76C242.45,423.32,244.07,421.13,242.73,419.15Zm-6.83,6.52c-1.54.55-3.1,1-4.62,1.64a60.16,60.16,0,0,1,3.68-4.86,21.7,21.7,0,0,1,2.08-2.1c1.16-1,5.68-3,4.88,1.12C241.47,423.74,237.74,425,235.9,425.67Z" style="fill:#263238"></path><path d="M221.21,426.29c3.06,1.44,6.65,1.49,9.95,1.93a.47.47,0,0,0,.47-.59.11.11,0,0,0,.06-.16,20.23,20.23,0,0,0-7.6-7.15c-1.84-.94-4.74-1.23-5.73,1.1S219.41,425.46,221.21,426.29Zm-1.62-2.75c-1.57-3.9,3.26-2.76,4.58-2a22.3,22.3,0,0,1,2.44,1.66c1.62,1.24,3,2.69,4.53,4.08-1.61-.31-3.23-.48-4.85-.73C224.36,426.23,220.46,425.69,219.59,423.54Z" style="fill:#263238"></path><path d="M178.12,228.86s19.52,98,20.9,105.26c.22,1.17-4.93,40.47-5.19,62.35a26.77,26.77,0,0,0,4.12,15l38.7,1.74s4.24-5.74,4.33-11.63c.29-18.93-3.42-58.11-4.76-69.13-1.75-14.46-23.85-103.55-23.85-103.55Z" style="fill:#455a64"></path><path d="M200,404.25c6.17.08,4.4,0,10.57.12,3,.07,22.87.57,25.67,1.14a.06.06,0,0,1,0,.12c-2.84.37-22.67-.47-25.69-.61-6.17-.26-4.39-.25-10.56-.59A.09.09,0,0,1,200,404.25Z" style="fill:#263238"></path><path d="M204.07,334.42a150.68,150.68,0,0,0-2.68-16.06q-1.56-8.16-3.1-16.33c-2-10.78-4-21.57-6.12-32.35-2.34-12.19-5.68-24.1-8.14-36.26-.06-.28-.47-.14-.42.13,3.82,21.63,8.9,42.93,13,64.5q1.54,8.18,3.1,16.34c1,5.31,2.13,10.61,3,15.95a44.26,44.26,0,0,1,.6,8.37c-.08,2.65-.35,5.28-.59,7.91q-.76,8.28-1.5,16.57-.8,9.12-1.57,18.23c-.52,6.18-1.1,12.37-1.41,18.56,0,.08.13.1.14,0,1.45-10.9,2.31-21.9,3.35-32.85q.78-8.29,1.54-16.58C203.74,345.23,204.5,339.79,204.07,334.42Z" style="fill:#263238"></path><path d="M208.28,228.86l-12.19,90.4c-5.8-29.28-18-90.4-18-90.4Z" style="fill:#263238"></path><path d="M193.77,452.47c-2,.49-57.93-4.21-59.94-5.74-.77-.57-.56-8.76,0-18.64,0-.11,0-.21,0-.31.11-2,.23-4.14.38-6.26,0-.29,0-.59.05-.88l6.95-29,37.42,3-7.91,28.68-.13,1.14-.65,5.94-.06.61s20.6,11.37,22.64,13.29S195.78,452,193.77,452.47Z" style="fill:#ad6359"></path><path d="M178.93,435.44c-.13-.05-.2-.1-.21-.13Z" style="fill:#9E1528"></path><path d="M194.84,452.91c-1.33.32-25.53-1.57-43.12-3.37-4.07-.42-7.79-.84-10.79-1.22-4.13-.53-6.89-1-7.32-1.31-.74-.56-.06-23.48.36-26.15l36.87,3.08-.41,7s21,11.64,23.12,13.59S196.89,452.41,194.84,452.91Z" style="fill:#9E1528"></path><path d="M193.69,450.52c-9.56-1-48.19-4.37-57.72-4.67-.08,0-.08,0,0,.06,9.44,1.24,48.11,4.24,57.7,4.76C193.88,450.68,193.89,450.54,193.69,450.52Z" style="fill:#263238"></path><path d="M171.43,428.93c-3.71-1-8.36-.83-11.47,1.61-.12.09,0,.26.14.23a54.12,54.12,0,0,1,11.28-1.37A.24.24,0,0,0,171.43,428.93Z" style="fill:#263238"></path><path d="M174,430.8c-3.71-1-8.36-.84-11.47,1.61-.12.09,0,.26.14.23A53.45,53.45,0,0,1,174,431.27.24.24,0,0,0,174,430.8Z" style="fill:#263238"></path><path d="M176.59,432.67c-3.71-1-8.36-.84-11.47,1.6-.12.1,0,.27.14.24a53.45,53.45,0,0,1,11.28-1.37A.24.24,0,0,0,176.59,432.67Z" style="fill:#263238"></path><path d="M179.17,434.54c-3.7-1-8.36-.84-11.47,1.6-.12.1,0,.27.14.24A52.81,52.81,0,0,1,179.12,435,.24.24,0,0,0,179.17,434.54Z" style="fill:#263238"></path><path d="M179.13,420.81c-1.31-2.17-4.15-1.49-5.83-.3a20.18,20.18,0,0,0-6.53,8.14.11.11,0,0,0,.07.15.48.48,0,0,0,.56.52c3.2-.89,6.74-1.44,9.58-3.29C178.64,425,180.36,422.85,179.13,420.81ZM172,427c-1.56.48-3.14.88-4.69,1.41a56.31,56.31,0,0,1,3.92-4.67,19.56,19.56,0,0,1,2.18-2c1.2-.93,5.82-2.72,4.81,1.36C177.64,425.33,173.85,426.41,172,427Z" style="fill:#263238"></path><path d="M157.27,426.86c3,1.58,6.57,1.82,9.85,2.42a.47.47,0,0,0,.5-.57.1.1,0,0,0,.06-.15,20.14,20.14,0,0,0-7.23-7.52c-1.78-1-4.67-1.47-5.78.81S155.53,425.93,157.27,426.86ZM155.8,424c-1.37-4,3.39-2.6,4.68-1.78a21.21,21.21,0,0,1,2.34,1.78,60.44,60.44,0,0,1,4.32,4.3c-1.59-.39-3.2-.64-4.8-1C160.43,427,156.56,426.22,155.8,424Z" style="fill:#263238"></path><path d="M173.5,416.56l-37.59-4.17s-3.66-9.88-1.4-19.26c4.76-19.78,18.29-50.2,19.26-53.68,1.47-5.32,4.76-48.15,7.95-74.63,0,0-6.05-14.34,5.27-36H212.4s-3,20.61-8.25,33.67c0,0,1-.74-5.17,2.64,0,0-3.75,67.27-6.5,80-2.27,10.51-6.22,44.21-10.92,61.24C179.9,412.41,173.5,416.56,173.5,416.56Z" style="fill:#455a64"></path><path d="M138.44,404.11c6.15.57,4.39.32,10.53,1,3,.31,22.75,2.38,25.5,3.17.06,0,.05.12,0,.12-2.86.15-22.56-2.27-25.56-2.64-6.13-.76-4.36-.61-10.48-1.43A.09.09,0,0,1,138.44,404.11Z" style="fill:#263238"></path><path d="M205.87,261.61a74.16,74.16,0,0,0-11.82,5.5.13.13,0,0,0,.11.24c4-1.71,8-3.34,11.93-5.27A.26.26,0,0,0,205.87,261.61Z" style="fill:#263238"></path><path d="M207.14,234.28c0-.13-.25-.16-.25,0a133.07,133.07,0,0,1-.67,13.31c-.19,2.05-1.84,13.38-5.39,12.56-.6-.14-.9-.73-1-1.62a14.3,14.3,0,0,1,.48-3.48c.39-2.37.71-4.75.91-7.15a65.32,65.32,0,0,0-.14-13.41.12.12,0,0,0-.23,0A124.39,124.39,0,0,1,199.77,253c-.45,2.95-1.93,7.39,1.15,7.84s5.17-7,5.55-9A67.86,67.86,0,0,0,207.14,234.28Z" style="fill:#263238"></path><path d="M200.92,260.43a19.71,19.71,0,0,0-.8,2.35,5.37,5.37,0,0,0-.33,1.93c0,.13.18.14.25.06a7,7,0,0,0,.82-1.88c.27-.73.56-1.45.81-2.19A.4.4,0,0,0,200.92,260.43Z" style="fill:#263238"></path><path d="M169.94,231a38.14,38.14,0,0,0-5,13.77,42.21,42.21,0,0,0,.47,14.74,32.48,32.48,0,0,1,.66,8.63c-.21,3-.61,5.91-.94,8.85l-1.92,17.32c-1.28,11.5-2.45,23-4,34.49a141.22,141.22,0,0,1-3.16,16.7c-1.4,5.44-3.06,10.8-4.72,16.15-3.42,11.05-6.87,22.09-10.16,33.18-.41,1.38-.82,2.77-1.21,4.16,0,.11.14.15.18,0,3.73-10.89,7-21.94,10.47-32.92,3.38-10.73,6.8-21.44,8.56-32.58.89-5.67,1.49-11.39,2.14-17.09s1.31-11.54,2-17.31,1.31-11.43,1.94-17.15q.48-4.32.95-8.66a57.86,57.86,0,0,0,.6-8.31,62.61,62.61,0,0,0-1.2-8.17,38.3,38.3,0,0,1-.44-7.56,39.48,39.48,0,0,1,3.53-14.69c.52-1.13.81-2.32,1.42-3.4C170.31,230.91,170.12,230.73,169.94,231Z" style="fill:#263238"></path><path d="M183.34,233c-.72,1.93-1.56,3.81-2.44,5.66a14.38,14.38,0,0,1-3,4.6,11.47,11.47,0,0,1-4.6,2.33,27.08,27.08,0,0,1-3,.65,20.7,20.7,0,0,0-3,.55.2.2,0,0,0,0,.39,13.17,13.17,0,0,0,3.26.08,18.17,18.17,0,0,0,3.11-.42,11.19,11.19,0,0,0,5-2.57,13.44,13.44,0,0,0,3.08-5A33.59,33.59,0,0,0,183.6,233,.13.13,0,0,0,183.34,233Z" style="fill:#263238"></path><path d="M199,265.14c0-.12-.22-.16-.25,0-.35,1.56-1,8-1.11,9.66-.31,3.29-.54,6.57-.79,9.86-.48,6.5-1.4,30.13-1.44,32,0,.11.18.1.19,0,.19-1.63,1.27-17.62,1.52-20.87.5-6.53,1-13.06,1.42-19.6C198.64,274.34,199.11,267,199,265.14Z" style="fill:#263238"></path><path d="M204.18,262.43c.06,0,0,.05,0,.07A.19.19,0,0,1,204.18,262.43ZM138.42,404.29c6.12.82,4.35.67,10.48,1.43,3,.37,22.7,2.79,25.56,2.64.06,0,.07-.11,0-.12-2.75-.79-22.49-2.86-25.5-3.17-6.14-.64-4.38-.39-10.53-1A.09.09,0,0,0,138.42,404.29Zm67.45-142.68a74.16,74.16,0,0,0-11.82,5.5.13.13,0,0,0,.11.24c4-1.71,8-3.34,11.93-5.27A.26.26,0,0,0,205.87,261.61Zm1.27-27.33c0-.13-.25-.16-.25,0a133.07,133.07,0,0,1-.67,13.31c-.19,2.05-1.84,13.38-5.39,12.56-.6-.14-.9-.73-1-1.62a14.3,14.3,0,0,1,.48-3.48c.39-2.37.71-4.75.91-7.15a65.32,65.32,0,0,0-.14-13.41.12.12,0,0,0-.23,0A124.39,124.39,0,0,1,199.77,253c-.45,2.95-1.93,7.39,1.15,7.84s5.17-7,5.55-9A67.86,67.86,0,0,0,207.14,234.28Zm-6.22,26.15a19.71,19.71,0,0,0-.8,2.35,5.37,5.37,0,0,0-.33,1.93c0,.13.18.14.25.06a7,7,0,0,0,.82-1.88c.27-.73.56-1.45.81-2.19A.4.4,0,0,0,200.92,260.43Zm-31-29.4a38.14,38.14,0,0,0-5,13.77,42.21,42.21,0,0,0,.47,14.74,32.48,32.48,0,0,1,.66,8.63c-.21,3-.61,5.91-.94,8.85l-1.92,17.32c-1.28,11.5-2.45,23-4,34.49a141.22,141.22,0,0,1-3.16,16.7c-1.4,5.44-3.06,10.8-4.72,16.15-3.42,11.05-6.87,22.09-10.16,33.18-.41,1.38-.82,2.77-1.21,4.16,0,.11.14.15.18,0,3.73-10.89,7-21.94,10.47-32.92,3.38-10.73,6.8-21.44,8.56-32.58.89-5.67,1.49-11.39,2.14-17.09s1.31-11.54,2-17.31,1.31-11.43,1.94-17.15q.48-4.32.95-8.66a57.86,57.86,0,0,0,.6-8.31,62.61,62.61,0,0,0-1.2-8.17,38.3,38.3,0,0,1-.44-7.56,39.48,39.48,0,0,1,3.53-14.69c.52-1.13.81-2.32,1.42-3.4C170.31,230.91,170.12,230.73,169.94,231Zm13.4,1.93c-.72,1.93-1.56,3.81-2.44,5.66a14.38,14.38,0,0,1-3,4.6,11.47,11.47,0,0,1-4.6,2.33,27.08,27.08,0,0,1-3,.65,20.7,20.7,0,0,0-3,.55.2.2,0,0,0,0,.39,13.17,13.17,0,0,0,3.26.08,18.17,18.17,0,0,0,3.11-.42,11.19,11.19,0,0,0,5-2.57,13.44,13.44,0,0,0,3.08-5A33.59,33.59,0,0,0,183.6,233,.13.13,0,0,0,183.34,233ZM199,265.14c0-.12-.22-.16-.25,0-.35,1.56-1,8-1.11,9.66-.31,3.29-.54,6.57-.79,9.86-.48,6.5-1.4,30.13-1.44,32,0,.11.18.1.19,0,.19-1.63,1.27-17.62,1.52-20.87.5-6.53,1-13.06,1.42-19.6C198.64,274.34,199.11,267,199,265.14Z" style="opacity:0.1"></path><path d="M189.45,140.67c-5.26,5.12-6.84,13.62-6.84,13.62s-5.08,8.52-3.74,13.18a8.49,8.49,0,0,0,5.34,5.8l-.47-2.58s1.63,3.33,7.21,4.72,13-.24,16.83-2.15a14.67,14.67,0,0,0,5.7-4.9L212,172.08a11.09,11.09,0,0,0,8.71-5.86c3.28-5.73-5.88-14.12-6.64-15.91s-1.62-14.82-15.33-12.72C198.74,137.59,193.07,137.15,189.45,140.67Z" style="fill:#263238"></path><path d="M182.23,172.91a8.73,8.73,0,0,1-3.58-3.83,7.94,7.94,0,0,1-.8-5.13,17.65,17.65,0,0,1,2.63-5.75c1.13-1.86,2.41-3.64,3.51-5.52.06-.1-.09-.19-.17-.11a49.18,49.18,0,0,0-3.44,4.44,22.79,22.79,0,0,0-2.74,4.57,8.55,8.55,0,0,0-.68,4.78,8.29,8.29,0,0,0,1.67,3.62,17.72,17.72,0,0,0,3.53,3.05C182.24,173.09,182.32,173,182.23,172.91Z" style="fill:#263238"></path><path d="M221.93,160.3c-1.59-4.81-5.87-7.89-8.44-12.1-1.39-2.27-2.47-4.79-4.29-6.77,0-.06-.14,0-.1.08a32.34,32.34,0,0,1,3.43,6,34.56,34.56,0,0,0,4,5.69c2.67,3.28,5.88,7.17,5.21,11.71-.31,2.1-1.58,4.41-3.74,5-.08,0,0,.16.05.12a6.73,6.73,0,0,0,3.8-3.73A8.63,8.63,0,0,0,221.93,160.3Z" style="fill:#263238"></path><path d="M222.11,161.59a8.79,8.79,0,0,0-1.14-5.21,12.63,12.63,0,0,0-3.87-3.69c-1.7-1.15-3.5-2.25-4.56-4.07,0-.08-.16,0-.11.08,1.69,3,4.95,4.42,7.15,7,2.5,2.89,2.46,7.06.68,10.31a14.47,14.47,0,0,1-4.63,4.93s0,.07,0,.05C218.92,168.85,221.81,165.62,222.11,161.59Z" style="fill:#263238"></path><path d="M198.22,180.21c3.83,14.46,19.1,41.92,25,44.07,1.6.58,7.7,1.18,10.61-.25,5.93-2.9,14.25-17.79,19.5-31.07,1.7-4.3-16.61-9.15-21.22-7.51-1.78.64-5.21,11.91-5.9,11.41-3.54-2.54-17.08-17-20-20C200,170.48,196.84,175,198.22,180.21Z" style="fill:#ad6359"></path><path d="M251.91,196.16c3-4.54,4.78-15.67,5.15-22.75.19-3.75-.72-14.19-2.76-14.55-1.86-.33-2.6,2.81-2.6,2.81s-1.13-5-2.92-5.16c-2.62-.18-2.52,4.48-2.52,4.48s-.61-4.69-3.23-4.91-2.47,4.82-2.47,4.82-.38-4.32-2.63-3.49c-2.71,1-1.2,8.87-2.07,12.94-.2.92-1.94,18.1-1.94,18.1Z" style="fill:#ad6359"></path><path d="M251.78,161.7a44.49,44.49,0,0,1-1,12.7c-.25,1.19-.57,2.36-.84,3.54,0,.05-.08,0-.07,0a58.92,58.92,0,0,0,.88-6.34c.23-2.09.38-4.19.57-6.29.11-1.19.18-2.39.28-3.58C251.6,161.61,251.77,161.59,251.78,161.7Z" style="fill:#263238"></path><path d="M246.34,160.86a26.54,26.54,0,0,1,.13,3c0,1-.06,2.06-.16,3.09a52.47,52.47,0,0,1-.91,6c-.24,1.13-.57,2.24-.87,3.35,0,.08-.13,0-.12,0,.41-2,.67-4,.93-6s.42-4,.57-5.94c.08-1.14.18-2.28.27-3.41C246.19,160.78,246.33,160.76,246.34,160.86Z" style="fill:#263238"></path><path d="M240.55,160.71a44.35,44.35,0,0,1,.09,7,60.21,60.21,0,0,1-.83,7.08s-.08,0-.08,0c.1-2.35.24-4.7.33-7.05s.22-4.69.41-7C240.47,160.68,240.54,160.67,240.55,160.71Z" style="fill:#263238"></path><path d="M230.07,188.82s-2.47-6.48-2.22-9.67,5-14.07,7.3-12.66c2.93,1.83,1.32,8.91.12,12.2,0,0,6.77,4.21,6.62,9.75S230.07,188.82,230.07,188.82Z" style="fill:#ad6359"></path><path d="M235.85,167.28c1.89,3.73.06,7.88-.88,11.21a.39.39,0,0,0,.28.49c2.76,2,6.27,5.6,6.78,9.32,0,.11.15.12.15,0-.09-4-3.32-7.85-6.44-9.8,1-3.39,2.68-7.67.14-11.25C235.87,167.24,235.84,167.25,235.85,167.28Z" style="fill:#263238"></path><path d="M207,208.67l13.46-19.52a153.7,153.7,0,0,0-12.95-12.84c-7.73-6.82-12.44-4.56-9.39,9A88.3,88.3,0,0,0,207,208.67Z" style="fill:#9E1528"></path><path d="M217.59,187.18c-1.16,1.33-2.13,2.85-3.17,4.27s-2,2.72-2.95,4.11q-3,4.33-5.75,8.78s.05.11.09.06c2.06-2.78,4.07-5.59,6.06-8.42,1-1.41,1.93-2.85,2.88-4.29s2.07-2.9,2.93-4.45C217.71,187.19,217.63,187.13,217.59,187.18Z" style="fill:#263238"></path><path d="M198.11,185.31A88.3,88.3,0,0,0,207,208.67l12.36-17.92-19.81-18C197.15,173.58,196.39,177.63,198.11,185.31Z" style="opacity:0.1"></path><path d="M213.41,211l-1,17.85-45.38,0s7.85-39.07,20.39-52.15c6.28-6.55,12.25-6,16.75-1.24,1.14,1.2,12.22,16.81,13.54,23.85C218.83,205.49,213.41,211,213.41,211Z" style="fill:#9E1528"></path><path d="M205.32,207.88a49.13,49.13,0,0,0-7.14,1.24c-1.17.31-2.31.67-3.45,1-.56.2-1.13.37-1.71.54a7.69,7.69,0,0,1-1.84.36c-.05,0-.05.09,0,.09a13.19,13.19,0,0,0,1.78,0,12.3,12.3,0,0,0,1.69-.33c1.18-.3,2.35-.66,3.53-1,2.37-.63,4.75-1.26,7.17-1.72C205.46,208.06,205.43,207.87,205.32,207.88Z" style="fill:#263238"></path><path d="M211.29,210a54.25,54.25,0,0,0-6-.23c-1,0-2,.1-3,.2l-1.42.17c-.52.07-1,.22-1.55.28-.05,0-.05.09,0,.08.49,0,1,0,1.49,0l1.49-.05,3-.1c2-.08,4-.15,6-.16C211.4,210.12,211.39,210,211.29,210Z" style="fill:#263238"></path><path d="M194.07,176c.26.89,4.9,6.51,9,6.09,1.34-.14.9-7.49.9-7.49l.1-.55,1.27-7.7-9.25-5.24-1.33-.69s-.21,2.13-.45,4.79c0,.12,0,.24,0,.38s0,.29,0,.43c0,.39-.08.8-.11,1.2s0,.61-.06.93l-.06,1A48.58,48.58,0,0,0,194.07,176Z" style="fill:#ad6359"></path><path d="M194.32,165.23a15.68,15.68,0,0,0,9.76,8.84l1.27-7.7-9.25-5.24-1.33-.69S194.56,162.57,194.32,165.23Z" style="fill:#263238"></path><path d="M214.3,152c3.36,13.28-4.22,16.79-7.08,17.51-2.6.66-11.54,2.55-16.25-10.31s.4-18.62,6.27-20.43S211,138.75,214.3,152Z" style="fill:#ad6359"></path><path d="M211.73,149.23a7.47,7.47,0,0,1-.95,0,1.54,1.54,0,0,1-1-.14.49.49,0,0,1-.14-.58,1.2,1.2,0,0,1,1.08-.57,1.82,1.82,0,0,1,1.24.34A.52.52,0,0,1,211.73,149.23Z" style="fill:#263238"></path><path d="M203,151.49c.3-.11.56-.27.85-.41a1.61,1.61,0,0,0,.79-.59.49.49,0,0,0-.15-.58,1.23,1.23,0,0,0-1.23,0,1.8,1.8,0,0,0-.92.88A.52.52,0,0,0,203,151.49Z" style="fill:#263238"></path><path d="M203.88,154.85a.93.93,0,0,1-.19.27.59.59,0,0,1-.47.21c-.55,0-.84-.55-.93-1.11,0,0,0-.06,0,0,.25.27.55.53.86.45s.36-.26.51-.44A3.57,3.57,0,0,0,203.88,154.85Z" style="fill:#263238"></path><path d="M203.63,154.73a1.41,1.41,0,0,1,.15-.74,1,1,0,0,1,.65-.5.91.91,0,0,1,.81.2,1.7,1.7,0,0,1,.43.62,2.13,2.13,0,0,1,.13.43,2,2,0,0,1,0,.93,2.72,2.72,0,0,0-.19-.65,3.1,3.1,0,0,0-.26-.55c-.22-.36-.52-.63-.83-.54s-.51.39-.54.81a7.17,7.17,0,0,0,0,1.3A3,3,0,0,1,203.63,154.73Z" style="fill:#263238"></path><path d="M212.51,152.64a1,1,0,0,0,.31.12.59.59,0,0,0,.5-.08,1.11,1.11,0,0,0,.17-1.44s0-.05-.05,0c-.07.36-.17.74-.47.85a1.18,1.18,0,0,1-.68-.09A3.11,3.11,0,0,1,212.51,152.64Z" style="fill:#263238"></path><path d="M212.65,152.4a1.52,1.52,0,0,0-.53-.54,1.06,1.06,0,0,0-.82-.06,1,1,0,0,0-.57.62,1.73,1.73,0,0,0,0,.75,3,3,0,0,0,.12.43,2.2,2.2,0,0,0,.51.79,2.7,2.7,0,0,1-.2-.65,3.3,3.3,0,0,1-.08-.61c0-.42.08-.81.39-.9a.79.79,0,0,1,.9.38,6.7,6.7,0,0,1,.68,1.11A3,3,0,0,0,212.65,152.4Z" style="fill:#263238"></path><path d="M207.27,161.64c.26.17.54.43.87.39a2.45,2.45,0,0,0,1-.42s.06,0,0,0a1.24,1.24,0,0,1-1.06.72,1,1,0,0,1-.88-.67A.05.05,0,0,1,207.27,161.64Z" style="fill:#263238"></path><path d="M210.24,157.43s.52,1.3.68,1.94c0,.06-.13.12-.34.19h0a3.12,3.12,0,0,1-3.22-.4.07.07,0,0,1,.07-.11,4.69,4.69,0,0,0,3,.1c0-.19-1-2.2-.87-2.24a5.93,5.93,0,0,1,1.53,0c-1-2.75-2.45-5.32-3.42-8.07a.09.09,0,0,1,.15-.08,47.22,47.22,0,0,1,4.06,8.53C212,157.62,210.52,157.47,210.24,157.43Z" style="fill:#263238"></path><path d="M210.46,159.13a3.86,3.86,0,0,1-1,1.64,1.73,1.73,0,0,1-1,.42c-.77.07-1-.57-1.1-1.17a3.83,3.83,0,0,1,0-1A4.91,4.91,0,0,0,210.46,159.13Z" style="fill:#263238"></path><path d="M209.43,160.77a1.73,1.73,0,0,1-1,.42c-.77.07-1-.57-1.1-1.17A1.75,1.75,0,0,1,209.43,160.77Z" style="fill:#ff9bbc"></path><path d="M191.23,158.89c2.25-.18,2-4.93,2-4.93s4.53-.7,5-7.44a10.23,10.23,0,0,1-1.16,5.7s7.85-2.1,10.16-9.31c0,0-.81,3.61-1.88,5a9.48,9.48,0,0,0,4.41-4.44s2,3.64,3.25,4.53c0,0-2.53-13.91-15.23-10.39,0,0-8,1.81-9.92,8.68S191.23,158.89,191.23,158.89Z" style="fill:#263238"></path><path d="M193.5,158.68s-3.63-3.74-5.38-2.38,1.47,7.13,3.86,7.6a2.32,2.32,0,0,0,2.86-1.73Z" style="fill:#ad6359"></path><path d="M189.09,157.93s0,.06,0,.06a5.9,5.9,0,0,1,3.58,3.13,1.29,1.29,0,0,0-1.95,0s0,.09.06.07a1.45,1.45,0,0,1,1.63.24,7.4,7.4,0,0,1,.94,1.14c.1.12.34,0,.26-.15l0,0C193.29,160.34,191.28,157.78,189.09,157.93Z" style="fill:#263238"></path><path d="M187.4,184.31c1.83,14.3,13.79,41.92,19.72,44.07,1.6.58,6.79,2.15,9.84,1,9.15-3.36,19.51-19,25.92-30.48,2.26-4-16.24-14.38-19.51-10.73-2,2.19-9.9,15.4-10.55,14.89,0,0-14.66-21.82-16.56-24.18C190,171.07,186.72,178.93,187.4,184.31Z" style="fill:#ad6359"></path><path d="M222.85,190.25s1.24-8.47,2.31-14c.6-3.07,2.1-8.23,3.57-10.29,2.2-3.06,13.35-14.49,16.18-11.85,2.56,2.4-8.27,11-8.27,11s10.16-9.65,12.72-6.2-11,11.54-11,11.54,10.66-9.67,12.74-5.7c1.56,3-10.28,11-10.28,11s9.22-8.25,11-5.23c1.93,3.34-8.54,11.42-8.54,11.42,3.14,8.43,1.35,13.53-.49,17.13C242.33,200,222.85,190.25,222.85,190.25Z" style="fill:#ad6359"></path><path d="M232.91,168.26c1.16-1.18,2.31-2.38,3.57-3.45s2.54-2.09,3.89-3a27.56,27.56,0,0,1,5.59-3.19,60.66,60.66,0,0,0-9.2,6.59c-1.25,1.07-2.56,2.07-3.81,3.14C232.92,168.33,232.89,168.29,232.91,168.26Z" style="fill:#263238"></path><path d="M236.69,172.85c1.54-1.43,3-2.92,4.61-4.29s3.23-2.52,4.91-3.77c.13-.1.14,0,0,.11-1.63,1.32-3,2.66-4.65,4s-3.28,2.62-4.84,4C236.7,172.92,236.67,172.88,236.69,172.85Z" style="fill:#263238"></path><path d="M239.23,177.38a47.06,47.06,0,0,1,7.55-6c.13-.09.13,0,0,.14-2.55,1.95-4.56,3.47-7.47,6C239.26,177.5,239.18,177.43,239.23,177.38Z" style="fill:#263238"></path><path d="M224.43,224.44c.95-1.17,4.1-4.48,5-5.65s1.9-2.34,2.83-3.53a86.64,86.64,0,0,0,5.19-7.43,82.82,82.82,0,0,0,4.38-7.94,24.58,24.58,0,0,0,2.57-8.61,20.28,20.28,0,0,0-.18-4.8,44.64,44.64,0,0,0-1.09-4.71c-.06-.24,1.32-1.11,1.59-1.33.52-.43,1-.85,1.56-1.3a32.16,32.16,0,0,0,2.86-2.86,12.71,12.71,0,0,0,2.32-3.41c.38-.93.5-2.46-.85-2.59a4.86,4.86,0,0,0-2.14.52,19.28,19.28,0,0,0-2.28,1h0s-.1,0-.06-.07c.91-.85,1.77-1.75,2.61-2.66q.65-.69,1.23-1.41a4.66,4.66,0,0,0,1-1.61,1.82,1.82,0,0,0-.16-1.44,1.72,1.72,0,0,0-1.49-.64,6.16,6.16,0,0,0-3.25,1s-.06,0,0,0l.23-.17s0,0,0,0a12.68,12.68,0,0,0,2-2.12,4.11,4.11,0,0,0,1.22-2.68,1.72,1.72,0,0,0-1.84-1.58,5.25,5.25,0,0,0-1.47.29,13.33,13.33,0,0,0-1.58.63,0,0,0,0,1,0,0c.53-.33,1.09-.62,1.65-.91a4.14,4.14,0,0,1,1.57-.47,2,2,0,0,1,2.18,1.59,3.67,3.67,0,0,1-1,2.86,13.78,13.78,0,0,1-2.05,2,5.31,5.31,0,0,1,2.46-.78,1.91,1.91,0,0,1,2.12,1.91c0,1.36-1.11,2.48-2,3.41a21.37,21.37,0,0,1-2.58,2.36,8.56,8.56,0,0,1,3.28-1.46,1.8,1.8,0,0,1,2.15,1.95,6.74,6.74,0,0,1-1.62,3.7,26.37,26.37,0,0,1-3.15,3.45c-.63.59-1.3,1.15-2,1.68a20.41,20.41,0,0,1-1.91,1.3,17,17,0,0,1,1.52,8.21,23,23,0,0,1-1.91,8.69,69.88,69.88,0,0,1-4.38,8.3,82.7,82.7,0,0,1-5.25,7.64c-1.06,1.37-2.16,2.73-3.35,4s-4.53,4.73-5.86,5.85A.06.06,0,0,1,224.43,224.44Z" style="fill:#263238"></path><path d="M240.48,161.68a12.51,12.51,0,0,0,2-2.06,19.65,19.65,0,0,0,1.69-2.27,3.92,3.92,0,0,0,.93-2.32c-.15-1.37-1.73-1.3-2.67-.87h0a2.31,2.31,0,0,1,2.51,0c.81.62.58,1.67.19,2.47a13.52,13.52,0,0,1-1.88,2.79,12,12,0,0,1-1.23,1.24c-.46.4-1,.71-1.46,1.1C240.49,161.8,240.43,161.72,240.48,161.68Z" style="fill:#263238"></path><path d="M213.27,202.4c.78-1.22,1.59-2.42,2.4-3.62s1.66-2.38,2.52-3.55,1.86-2.37,2.75-3.59c0,0,.12,0,.08.05-.84,1.24-1.59,2.54-2.41,3.79s-1.63,2.46-2.47,3.67-1.68,2.43-2.54,3.63-1.68,2.39-2.59,3.52c0,0-.11,0-.08-.06C211.64,204.93,212.47,203.66,213.27,202.4Z" style="fill:#263238"></path><path d="M193.11,211.57,209,194a151.75,151.75,0,0,0-11.15-14.43c-6.77-7.78-11.73-6.16-10.49,7.69A88.28,88.28,0,0,0,193.11,211.57Z" style="fill:#9E1528"></path><path d="M206.45,191.66c-1.33,1.17-2.49,2.54-3.71,3.82s-2.34,2.43-3.47,3.69q-3.51,3.9-6.85,7.94s0,.12.08.08q3.62-3.74,7.12-7.56c1.16-1.27,2.29-2.57,3.42-3.87s2.43-2.61,3.49-4A.05.05,0,0,0,206.45,191.66Z" style="fill:#263238"></path><path d="M207.89,191.81c-.49-.71-1-1.41-1.51-2.1l-.32-.43c-.46-1-.93-2-1.48-2.89a0,0,0,0,0-.06,0c.32.77.69,1.51,1.07,2.25a39,39,0,0,0-2.52-3.06s-.08,0,0,0c.94,1.45,2,2.84,3,4.26.48.68,2.93,4,2.9,4a5.19,5.19,0,0,0-.45.58c0,.14,0,.09.06.05l.81-.68S208.3,192.43,207.89,191.81Z" style="fill:#263238"></path><path d="M195,209.44c-.58.77-1.18,1.51-1.78,2.26l-.2.24-.13-.3a66.84,66.84,0,0,1-3-8.57c-.41-1.45-.75-2.93-1-4.41a40.22,40.22,0,0,1-.62-4.5l1.13,4.38,1.23,4.33,1.3,4.32c.45,1.43.87,2.88,1.35,4.31l-.33-.06C193.66,210.77,194.33,210.09,195,209.44Z" style="fill:#263238"></path><path d="M189.22,198.84a6.06,6.06,0,0,1-.77-1.27,5.68,5.68,0,0,1-.46-1.41,13.65,13.65,0,0,1,.69,1.31A12.58,12.58,0,0,1,189.22,198.84Z" style="fill:#263238"></path></g><g id="freepik--Ribbon--inject-106"><rect x="491.29" y="254.66" width="7.87" height="197.77" style="fill:#263238"></rect><rect x="469.27" y="452.43" width="51.89" height="7.38" style="fill:#263238"></rect><rect x="251.45" y="254.66" width="7.87" height="197.77" style="fill:#263238"></rect><rect x="229.44" y="452.43" width="51.89" height="7.38" style="fill:#263238"></rect><polygon points="397.67 296.62 397.67 289.15 397.73 288.33 397.73 295.8 397.67 296.62" style="fill:#9E1528"></polygon><path d="M493.37,272.71l.65.56c-9.79,9.8-16.94,13-22.55,13s-9.62-3.1-13.24-5.85c-3-2.27-5.79-4.41-8.91-4.41H449c-8.32.38-13.41,4.59-18.79,9-6.66,5.51-14.14,11.71-29.08,11.71-1.12,0-2.29,0-3.5-.11l.06-.82c1.23.08,2.41.11,3.54.11,14.51,0,21.56-5.84,28.39-11.5,5.51-4.56,10.71-8.87,19.34-9.26h.37c3.42,0,6.33,2.24,9.42,4.59,3.61,2.76,7.47,5.7,12.72,5.7C476.91,285.43,483.78,282.32,493.37,272.71Z" style="fill:#9E1528"></path><g style="opacity:0.1"><path d="M493.37,272.71l.65.56c-9.79,9.8-16.94,13-22.55,13s-9.62-3.1-13.24-5.85c-3-2.27-5.79-4.41-8.91-4.41H449c-8.32.38-13.41,4.59-18.79,9-6.66,5.51-14.14,11.71-29.08,11.71-1.12,0-2.29,0-3.5-.11l.06-.82c1.23.08,2.41.11,3.54.11,14.51,0,21.56-5.84,28.39-11.5,5.51-4.56,10.71-8.87,19.34-9.26h.37c3.42,0,6.33,2.24,9.42,4.59,3.61,2.76,7.47,5.7,12.72,5.7C476.91,285.43,483.78,282.32,493.37,272.71Z"></path></g><polygon points="493.37 272.71 493.37 257.01 494.02 257.56 494.02 273.27 493.37 272.71" style="fill:#9E1528"></polygon><path d="M397.73,295.8v-7.47c1.23.08,2.41.11,3.54.11,14.51,0,21.56-14.07,28.39-19.74,5.51-4.55,10.71-8.87,19.34-9.25h.37c3.42,0,6.33,2.23,9.42,4.59,3.61,2.76,7.47,5.7,12.72,5.7,5.4,0,12.27-3.11,21.86-12.72v15.7c-9.59,9.61-16.46,12.72-21.86,12.72-5.25,0-9.11-2.94-12.72-5.7-3.09-2.35-6-4.59-9.42-4.59H449c-8.63.39-13.83,4.7-19.34,9.26-6.83,5.66-13.88,11.5-28.39,11.5C400.14,295.91,399,295.88,397.73,295.8Z" style="fill:#9E1528"></path><polygon points="365.94 289.74 365.94 279.52 366.11 280.33 366.11 290.54 365.94 289.74" style="fill:#9E1528"></polygon><polygon points="257.95 273.25 257.95 257.55 258.42 256.86 258.42 272.56 257.95 273.25" style="fill:#9E1528"></polygon><path d="M300.55,265.1v15.71a1.39,1.39,0,0,1-.1.53c-.34.91-1.68,1.64-4.08,2.24a19.08,19.08,0,0,1-4.56.51c-13.72,0-33.18-11.4-33.39-11.53v-15.7c.21.13,19.67,11.52,33.39,11.52a18.58,18.58,0,0,0,4.56-.51c2.4-.59,3.74-1.32,4.08-2.23A1.4,1.4,0,0,0,300.55,265.1Z" style="fill:#9E1528"></path><path d="M296.61,271.49V255.78c0,1.7,1.31,3.41,2.58,5.07,1.15,1.49,2.24,2.92,2.24,4.25v15.71c0-1.34-1.09-2.76-2.24-4.26C297.92,274.89,296.61,273.19,296.61,271.49Z" style="fill:#9E1528"></path><g style="opacity:0.1"><path d="M296.61,271.49V255.78c0,1.7,1.31,3.41,2.58,5.07,1.15,1.49,2.24,2.92,2.24,4.25v15.71c0-1.34-1.09-2.76-2.24-4.26C297.92,274.89,296.61,273.19,296.61,271.49Z"></path></g><path d="M305.11,265.08c6.76,0,15.32,5.41,24.29,11.07,10.42,6.58,22.08,13.94,32.65,13.94a21.08,21.08,0,0,0,3.89-.35l.17.8a21,21,0,0,1-4.05.38c-10.84,0-22.62-7.44-33.15-14.09-8.86-5.59-17.31-10.93-23.79-10.93a9.23,9.23,0,0,0-4,.84c-2.58,1.22-4,2.52-4.41,3.95-.52,2,1,3.94,2.48,5.86s2.69,3.51,2.09,5.07c-.46,1.2-1.95,2.07-4.68,2.76a20.26,20.26,0,0,1-4.84.54c-5.27,0-11.89-1.61-19.77-4.82a118.75,118.75,0,0,1-14-6.85l.47-.69c.21.13,19.67,11.53,33.39,11.53a19.08,19.08,0,0,0,4.56-.51c2.4-.6,3.74-1.33,4.08-2.24.45-1.15-.73-2.69-2-4.31-1.51-2-3.23-4.21-2.63-6.53.45-1.69,2-3.16,4.88-4.49A10.1,10.1,0,0,1,305.11,265.08Z" style="fill:#9E1528"></path><g style="opacity:0.1"><path d="M305.11,265.08c6.76,0,15.32,5.41,24.29,11.07,10.42,6.58,22.08,13.94,32.65,13.94a21.08,21.08,0,0,0,3.89-.35l.17.8a21,21,0,0,1-4.05.38c-10.84,0-22.62-7.44-33.15-14.09-8.86-5.59-17.31-10.93-23.79-10.93a9.23,9.23,0,0,0-4,.84c-2.58,1.22-4,2.52-4.41,3.95-.52,2,1,3.94,2.48,5.86s2.69,3.51,2.09,5.07c-.46,1.2-1.95,2.07-4.68,2.76a20.26,20.26,0,0,1-4.84.54c-5.27,0-11.89-1.61-19.77-4.82a118.75,118.75,0,0,1-14-6.85l.47-.69c.21.13,19.67,11.53,33.39,11.53a19.08,19.08,0,0,0,4.56-.51c2.4-.6,3.74-1.33,4.08-2.24.45-1.15-.73-2.69-2-4.31-1.51-2-3.23-4.21-2.63-6.53.45-1.69,2-3.16,4.88-4.49A10.1,10.1,0,0,1,305.11,265.08Z"></path></g><path d="M365.94,279.52v10.22a21.09,21.09,0,0,1-3.89.36c-10.57,0-22.23-7.38-32.65-14-9-5.67-17.52-11.07-24.29-11.07a10.1,10.1,0,0,0-4.38.93c-2.83,1.34-4.43,2.8-4.88,4.49a4.11,4.11,0,0,0-.12,1v-15.7a4.11,4.11,0,0,1,.12-1c.45-1.7,2-3.17,4.88-4.5a10.1,10.1,0,0,1,4.38-.92c6.77,0,15.33,5.4,24.29,11.06,10.42,6.58,22.08,19.44,32.65,19.44A20.26,20.26,0,0,0,365.94,279.52Z" style="fill:#9E1528"></path></g></svg>